<svg xmlns="http://www.w3.org/2000/svg" width="26.561" height="26.561" viewBox="0 0 26.561 26.561">
  <g id="Group_135" data-name="Group 135" transform="translate(-37 -31.939)">
    <g id="qr-code-scan" transform="translate(37 31.939)">
      <path id="Path_69" data-name="Path 69" d="M99.157,82.167V95.99a2.17,2.17,0,0,1-2.167,2.167H83.167A2.17,2.17,0,0,1,81,95.99V82.167A2.17,2.17,0,0,1,83.167,80H96.99A2.17,2.17,0,0,1,99.157,82.167Z" transform="translate(-76.798 -75.85)" fill="#ecf9fd"/>
      <path id="Path_70" data-name="Path 70" d="M265.078,82.167V95.99a2.17,2.17,0,0,1-2.167,2.167H256V80h6.911A2.17,2.17,0,0,1,265.078,82.167Z" transform="translate(-242.719 -75.85)" fill="#d9f3fc"/>
      <path id="Path_71" data-name="Path 71" d="M26.788,242.556H1.887a.778.778,0,0,1,0-1.556h24.9A.778.778,0,0,1,26.788,242.556Z" transform="translate(-1.057 -228.498)" fill="#4ed99c"/>
      <path id="Path_72" data-name="Path 72" d="M268.451,242.556H256V241h12.451A.778.778,0,0,1,268.451,242.556Z" transform="translate(-242.719 -228.498)" fill="#31b179"/>
      <path id="Path_73" data-name="Path 73" d="M375.92,6.588V2.871a1.316,1.316,0,0,0-1.315-1.315h-3.718a.778.778,0,0,1,0-1.556h3.718a2.874,2.874,0,0,1,2.871,2.871V6.588A.778.778,0,0,1,375.92,6.588Z" transform="translate(-350.915)" fill="#4d68d4"/>
      <path id="Path_74" data-name="Path 74" d="M374.605,377.476h-3.718a.778.778,0,0,1,0-1.556h3.718a1.316,1.316,0,0,0,1.315-1.315v-3.717a.778.778,0,0,1,1.556,0v3.717A2.874,2.874,0,0,1,374.605,377.476Z" transform="translate(-350.915 -350.915)" fill="#4d68d4"/>
      <path id="Path_75" data-name="Path 75" d="M0,6.588V2.871A2.874,2.874,0,0,1,2.871,0H6.588a.778.778,0,0,1,0,1.556H2.871A1.316,1.316,0,0,0,1.556,2.871V6.588A.778.778,0,0,1,0,6.588Z" transform="translate(0 0)" fill="#398ce0"/>
      <path id="Path_76" data-name="Path 76" d="M6.588,377.476H2.871A2.874,2.874,0,0,1,0,374.605v-3.717a.778.778,0,0,1,1.556,0v3.717a1.316,1.316,0,0,0,1.315,1.315H6.588A.778.778,0,0,1,6.588,377.476Z" transform="translate(0 -350.915)" fill="#398ce0"/>
      <path id="Path_77" data-name="Path 77" d="M330,331.167h-2.468a.778.778,0,0,1,0-1.556H330a.612.612,0,0,0,.611-.611v-2.468a.778.778,0,0,1,1.556,0V329A2.17,2.17,0,0,1,330,331.167Z" transform="translate(-309.807 -308.86)" fill="#4d68d4"/>
      <path id="Path_78" data-name="Path 78" d="M330.61,84.636V82.168a.612.612,0,0,0-.611-.611h-2.468a.778.778,0,0,1,0-1.556H330a2.17,2.17,0,0,1,2.168,2.168v2.468A.778.778,0,0,1,330.61,84.636Z" transform="translate(-309.807 -75.85)" fill="#4d68d4"/>
      <g id="Group_18" data-name="Group 18" transform="translate(4.202 4.15)">
        <path id="Path_79" data-name="Path 79" d="M81,84.636V82.168A2.17,2.17,0,0,1,83.168,80h2.468a.778.778,0,0,1,0,1.556H83.168a.612.612,0,0,0-.611.611v2.468A.778.778,0,0,1,81,84.636Z" transform="translate(-81 -80)" fill="#398ce0"/>
        <path id="Path_80" data-name="Path 80" d="M85.636,331.167H83.168A2.17,2.17,0,0,1,81,329v-2.468a.778.778,0,0,1,1.556,0V329a.612.612,0,0,0,.611.611h2.468A.778.778,0,0,1,85.636,331.167Z" transform="translate(-81 -313.01)" fill="#398ce0"/>
      </g>
    </g>
  </g>
</svg>
