<svg xmlns="http://www.w3.org/2000/svg" xmlns:xlink="http://www.w3.org/1999/xlink" width="150.309" height="155.663" viewBox="0 0 150.309 155.663">
  <defs>
    <clipPath id="clip-path">
      <path id="Path_190" data-name="Path 190" d="M123.934,151.6a22.148,22.148,0,0,0,29.947,9.272c.488-.257.964-.532,1.424-.82s.9-.585,1.331-.9q.782-.567,1.5-1.2s0,0,.006-.006a.94.94,0,0,0,.086-.078.04.04,0,0,1,.011-.009,22.168,22.168,0,1,0-34.3-6.266Z" transform="translate(-121.371 -119.094)" fill="#92e3a9" stroke="#263238" stroke-linecap="round" stroke-linejoin="round" stroke-width="0.5"/>
    </clipPath>
    <clipPath id="clip-path-2">
      <path id="Path_229" data-name="Path 229" d="M216.131,365.352a2.86,2.86,0,0,0,1.195-.327c5.984-3.117,10.619-8.268,13.416-11.965a44.182,44.182,0,0,0,3-4.438l-1.434-6.142s-1.349,3.5-6.771,6.968-11.863,4.593-13.947,8.068C209.742,360.594,212.993,365.51,216.131,365.352Z" transform="translate(-211.05 -342.48)" fill="#f67781" stroke="#263238" stroke-linecap="round" stroke-linejoin="round" stroke-width="0.5"/>
    </clipPath>
    <clipPath id="clip-path-3">
      <path id="Path_236" data-name="Path 236" d="M195.31,328.658s2.217-.067,5.183.032c4.484.141,10.679.647,13.511,2.295l.134-.046,2.593-.9s.018-.025.053-.077c.478-.71,4.333-6.237,9.832-8.49L234.4,299.71a16.528,16.528,0,0,0-12.5,7.653l-2.217.8s-13.195-3.908-20.581-2.5Z" transform="translate(-195.31 -299.71)" fill="#fff" stroke="#263238" stroke-linecap="round" stroke-linejoin="round" stroke-width="0.5"/>
    </clipPath>
    <clipPath id="clip-path-4">
      <path id="Path_243" data-name="Path 243" d="M318.331,385.146c2.231.608,4.656-3.314,7.615-7.594v0c1.954-2.825,4.139-5.809,6.652-7.741.2-.151.4-.3.608-.439L331.737,362c-3.05,1.6-4.941,4.161-8.107,6.792-5.1,4.241-9.611,6.845-10.862,8.722S314.508,384.1,318.331,385.146Z" transform="translate(-312.48 -362)" fill="#fff" stroke="#263238" stroke-linecap="round" stroke-linejoin="round" stroke-width="0.5"/>
    </clipPath>
    <clipPath id="clip-path-5">
      <path id="Path_247" data-name="Path 247" d="M270.649,361.01a1.22,1.22,0,0,0,.713.569,2.454,2.454,0,0,0,.242.081c.018,0,.042.007.067.014,2.358.615,7.664-.664,7.664-.664a24.7,24.7,0,0,0,3.686-2.042,9.571,9.571,0,0,0,.39-.949l.095-.278s1.251-.7,1.392-1.251.418-.7-.348-.8-4.934,0-4.934,0l4.515-1.841s2.99-1.507,3.268-2.038.625-.882-.9-.671a49.861,49.861,0,0,0-4.867,1.181l-2.614.555,2.614-1.114s5.144-.622,4.171-2.221h-2.92a30.145,30.145,0,0,0-4.934.625c-.85.26-6.473,3.753-6.473,3.753" transform="translate(-270.649 -349.54)" fill="#f67781" stroke="#263238" stroke-linecap="round" stroke-linejoin="round" stroke-width="0.5"/>
    </clipPath>
    <clipPath id="clip-path-6">
      <path id="Path_251" data-name="Path 251" d="M173.2,407.48l-12.866,3.878-23.548-5.372s14.383-4.094,14.518-4S173.2,407.48,173.2,407.48Z" transform="translate(-136.785 -401.988)" fill="#92e3a9" stroke="#263238" stroke-linecap="round" stroke-linejoin="round" stroke-width="0.5"/>
    </clipPath>
    <clipPath id="clip-path-7">
      <path id="Path_255" data-name="Path 255" d="M157.323,397.844c.9.063,1.128,3.318.185,4.532l-20.785-4.313-1.668-3.944Z" transform="translate(-135.055 -394.119)" fill="#f33d4b" stroke="#263238" stroke-linecap="round" stroke-linejoin="round" stroke-width="0.5"/>
    </clipPath>
    <clipPath id="clip-path-8">
      <path id="Path_263" data-name="Path 263" d="M138.584,406.036a3.1,3.1,0,0,0-.158,3.861A3.659,3.659,0,0,0,138.584,406.036Z" transform="translate(-137.826 -406.036)" fill="#263238" stroke="#263238" stroke-linecap="round" stroke-linejoin="round" stroke-width="0.5"/>
    </clipPath>
    <clipPath id="clip-path-9">
      <path id="Path_267" data-name="Path 267" d="M277.595,420.615l-22.472.923,2.192,7.735,27.642-1.054Z" transform="translate(-255.123 -420.615)" fill="#f33d4b" stroke="#263238" stroke-linecap="round" stroke-linejoin="round" stroke-width="0.5"/>
    </clipPath>
  </defs>
  <g id="Group_90" data-name="Group 90" transform="translate(-21.667 -525.775)">
    <g id="Group_46" data-name="Group 46" transform="translate(32.243 525.775)">
      <path id="Path_139" data-name="Path 139" d="M188.659,77.6s9.8,25.3-3.97,50.778-42.125,38.935-64.822,50.442S73.6,184.721,62.4,165.873s4.162-32.3,4.181-59.181S62.561,72.7,77.112,49.988s50.27-27.734,77.272-10.892S188.659,77.6,188.659,77.6Z" transform="translate(-58.315 -29.115)" fill="#fff" opacity="0.26"/>
    </g>
    <path id="Path_140" data-name="Path 140" d="M184.185,76.09c-9.388-18.216-26.8-32-48.513-33.937A60.267,60.267,0,0,0,93.95,54.223,53.224,53.224,0,0,0,79.265,71.245c-4.014,7.626-5.182,16.418-9.312,24.007-5.135,9.436-14.777,13.327-21.252,21.482-5.332,6.715-7.162,15.712-6.55,24.265A49.627,49.627,0,0,0,65.87,179.435c11.374,6.764,25.084,8.63,38.3,8.016,20.379-.947,40.67-7.666,56.721-20.258s27.59-31.2,30.322-51.421A67.364,67.364,0,0,0,184.185,76.09Z" transform="translate(-20.106 488.355)" fill="#c3c5c6" stroke="#707070" stroke-width="0.5"/>
    <path id="Path_141" data-name="Path 141" d="M184.185,76.09c-9.388-18.216-26.8-32-48.513-33.937A60.267,60.267,0,0,0,93.95,54.223,53.224,53.224,0,0,0,79.265,71.245c-4.014,7.626-5.182,16.418-9.312,24.007-5.135,9.436-14.777,13.327-21.252,21.482-5.332,6.715-7.162,15.712-6.55,24.265A49.627,49.627,0,0,0,65.87,179.435c11.374,6.764,25.084,8.63,38.3,8.016,20.379-.947,40.67-7.666,56.721-20.258s27.59-31.2,30.322-51.421A67.364,67.364,0,0,0,184.185,76.09Z" transform="translate(-20.106 488.355)" fill="#c3c5c6" stroke="#707070" stroke-width="0.5" opacity="0.7"/>
    <g id="Group_58" data-name="Group 58" transform="translate(22.184 527.503)">
      <g id="Group_47" data-name="Group 47" transform="translate(140.067 36.024)">
        <path id="Path_142" data-name="Path 142" d="M49.3,144.126c-.414,1.642-.21-1.38-1.023-5.079s-2.2-2.2-2.2-2.2" transform="translate(-41.283 -136.548)" fill="none" stroke="#263238" stroke-linecap="round" stroke-linejoin="round" stroke-width="0.5"/>
        <line id="Line_45" data-name="Line 45" x1="2.548" y1="1.045" transform="translate(5.725 2.755)" fill="none" stroke="#263238" stroke-linecap="round" stroke-linejoin="round" stroke-width="0.5"/>
        <path id="Path_143" data-name="Path 143" d="M57.958,140.824s1.523,3.15-.773,4.488" transform="translate(-54.34 -139.321)" fill="none" stroke="#263238" stroke-linecap="round" stroke-linejoin="round" stroke-width="0.5"/>
        <path id="Path_144" data-name="Path 144" d="M66.2,138.3s-2.514,1.4-.939,4.42" transform="translate(-64.743 -137.686)" fill="none" stroke="#263238" stroke-linecap="round" stroke-linejoin="round" stroke-width="0.5"/>
        <line id="Line_46" data-name="Line 46" x1="1.801" y2="1.315" transform="translate(1.379 2.569)" fill="none" stroke="#263238" stroke-linecap="round" stroke-linejoin="round" stroke-width="0.5"/>
        <line id="Line_47" data-name="Line 47" x2="1.409" y2="2.244" transform="translate(1.768 1.99)" fill="none" stroke="#263238" stroke-linecap="round" stroke-linejoin="round" stroke-width="0.5"/>
      </g>
      <g id="Group_48" data-name="Group 48" transform="translate(127.294 64.908)">
        <ellipse id="Ellipse_26" data-name="Ellipse 26" cx="3.833" cy="3.833" rx="3.833" ry="3.833" transform="matrix(-0.162, -0.987, 0.987, -0.162, 7.066, 10.537)" fill="none" stroke="#263238" stroke-linecap="round" stroke-linejoin="round" stroke-width="0.5"/>
        <ellipse id="Ellipse_27" data-name="Ellipse 27" cx="4.254" cy="4.254" rx="4.254" ry="4.254" transform="translate(8.334 12.654) rotate(-168.406)" fill="none" stroke="#263238" stroke-linecap="round" stroke-linejoin="round" stroke-width="0.5"/>
        <line id="Line_48" data-name="Line 48" x2="1.767" y2="0.631" transform="translate(6.735 4.555)" fill="none" stroke="#263238" stroke-linecap="round" stroke-linejoin="round" stroke-width="0.5"/>
        <line id="Line_49" data-name="Line 49" x2="2.537" y2="0.917" transform="translate(6.489 5.283)" fill="none" stroke="#263238" stroke-linecap="round" stroke-linejoin="round" stroke-width="0.5"/>
        <line id="Line_50" data-name="Line 50" x2="2.832" y2="1.089" transform="translate(6.395 6.16)" fill="none" stroke="#263238" stroke-linecap="round" stroke-linejoin="round" stroke-width="0.5"/>
        <line id="Line_51" data-name="Line 51" x2="2.581" y2="1.18" transform="translate(6.597 7.359)" fill="none" stroke="#263238" stroke-linecap="round" stroke-linejoin="round" stroke-width="0.5"/>
        <line id="Line_52" data-name="Line 52" x2="1.964" y2="0.815" transform="translate(7.051 8.281)" fill="none" stroke="#263238" stroke-linecap="round" stroke-linejoin="round" stroke-width="0.5"/>
        <path id="Path_145" data-name="Path 145" d="M77.655,219.043c.111-.333,1.354-.569,1.414.351s-1.311.156-1.7-.334c0,0,.706.947.407,1.135" transform="translate(-69.279 -218.748)" fill="none" stroke="#263238" stroke-linecap="round" stroke-linejoin="round" stroke-width="0.5"/>
        <path id="Path_146" data-name="Path 146" d="M98.238,222.851l1.1,2.294S98.789,224,98.2,224.1c-.727.129-.244,1.32.635.882" transform="translate(-96.743 -221.409)" fill="none" stroke="#263238" stroke-linecap="round" stroke-linejoin="round" stroke-width="0.5"/>
      </g>
      <g id="Group_49" data-name="Group 49" transform="translate(0.842 100.434)">
        <line id="Line_53" data-name="Line 53" x1="1.733" y2="1.64" transform="translate(6.133 3.381)" fill="none" stroke="#263238" stroke-linecap="round" stroke-linejoin="round" stroke-width="0.5"/>
        <line id="Line_54" data-name="Line 54" x2="1.452" y2="2.168" transform="translate(6.133 2.952)" fill="none" stroke="#263238" stroke-linecap="round" stroke-linejoin="round" stroke-width="0.5"/>
        <line id="Line_55" data-name="Line 55" x1="1.734" y1="0.645" transform="translate(2.694 2.93)" fill="none" stroke="#263238" stroke-linecap="round" stroke-linejoin="round" stroke-width="0.5"/>
        <line id="Line_56" data-name="Line 56" x1="1.054" y2="0.933" transform="translate(0.808 1.122)" fill="none" stroke="#263238" stroke-linecap="round" stroke-linejoin="round" stroke-width="0.5"/>
        <line id="Line_57" data-name="Line 57" x2="1.335" y2="4.583" transform="translate(0)" fill="none" stroke="#263238" stroke-linecap="round" stroke-linejoin="round" stroke-width="0.5"/>
      </g>
      <g id="Group_50" data-name="Group 50" transform="translate(70.485 74.868)">
        <path id="Path_147" data-name="Path 147" d="M246.19,250.3l-4.663-3.208-6.175.433-.386,7.827,4.533,3.241,5.593-.407Z" transform="translate(-234.966 -247.092)" fill="none" stroke="#263238" stroke-linecap="round" stroke-linejoin="round" stroke-width="0.5"/>
        <path id="Path_148" data-name="Path 148" d="M248.217,272.662l-4.514-3.25-5.612.417" transform="translate(-238.091 -261.568)" fill="none" stroke="#263238" stroke-linecap="round" stroke-linejoin="round" stroke-width="0.5"/>
        <line id="Line_58" data-name="Line 58" y1="7.843" x2="0.949" transform="translate(5.612)" fill="none" stroke="#263238" stroke-linecap="round" stroke-linejoin="round" stroke-width="0.5"/>
        <path id="Path_149" data-name="Path 149" d="M245.8,251.1l-6.162.713-4.676-3.489" transform="translate(-234.58 -247.891)" fill="none" stroke="#263238" stroke-linecap="round" stroke-linejoin="round" stroke-width="0.5"/>
        <line id="Line_59" data-name="Line 59" x1="0.529" y2="7.579" transform="translate(4.533 3.921)" fill="none" stroke="#263238" stroke-linecap="round" stroke-linejoin="round" stroke-width="0.5"/>
      </g>
      <g id="Group_51" data-name="Group 51" transform="translate(22.919 51.774)">
        <path id="Path_150" data-name="Path 150" d="M388.336,181.371l2.066,6.42-6.43-.867Z" transform="translate(-383.971 -181.371)" fill="none" stroke="#263238" stroke-linecap="round" stroke-linejoin="round" stroke-width="0.5"/>
        <line id="Line_60" data-name="Line 60" x1="1.149" y2="5.949" transform="translate(3.215 0)" fill="none" stroke="#263238" stroke-linecap="round" stroke-linejoin="round" stroke-width="0.5"/>
        <path id="Path_151" data-name="Path 151" d="M393.523,195.367l-.752-.119-.175,1.01" transform="translate(-390.124 -190.371)" fill="none" stroke="#263238" stroke-linecap="round" stroke-linejoin="round" stroke-width="0.5"/>
      </g>
      <g id="Group_52" data-name="Group 52" transform="translate(103.892 107.527)">
        <line id="Line_61" data-name="Line 61" x1="3.213" y2="1.578" transform="translate(1.161 2.996)" fill="none" stroke="#263238" stroke-linecap="round" stroke-linejoin="round" stroke-width="0.5"/>
        <line id="Line_62" data-name="Line 62" x2="0.919" y2="3.356" transform="translate(2.199 1.791)" fill="none" stroke="#263238" stroke-linecap="round" stroke-linejoin="round" stroke-width="0.5"/>
        <path id="Path_152" data-name="Path 152" d="M168.6,340.187a.488.488,0,0,0-.774.1c-.321.507.31,1.567.31,1.567l-1.289-.49" transform="translate(-166.849 -340.032)" fill="none" stroke="#263238" stroke-linecap="round" stroke-linejoin="round" stroke-width="0.5"/>
      </g>
      <g id="Group_53" data-name="Group 53" transform="translate(76.155)">
        <path id="Path_153" data-name="Path 153" d="M236.772,34.032c-3.067,1.723.447,5.94.447,8.4s-3.514,2.108-5.271,2.811c-.7,0-2.108,0-2.07,1.787" transform="translate(-229.878 -34.032)" fill="none" stroke="#263238" stroke-linecap="round" stroke-linejoin="round" stroke-width="0.5"/>
        <path id="Path_154" data-name="Path 154" d="M229.339,40.37c-.533,2.908-3.87,1.876-5.911,2.54-3.508,1.141-1.563,4.769-.514,6.96.627,1.31,1.252,3.141.131,4.384" transform="translate(-219.026 -38.143)" fill="none" stroke="#263238" stroke-linecap="round" stroke-linejoin="round" stroke-width="0.5"/>
        <line id="Line_63" data-name="Line 63" x1="3.658" y1="3.039" transform="translate(6.207 0.316)" fill="none" stroke="#263238" stroke-linecap="round" stroke-linejoin="round" stroke-width="0.5"/>
        <line id="Line_64" data-name="Line 64" x1="2.755" y1="2.285" transform="translate(5.675 1.977)" fill="none" stroke="#263238" stroke-linecap="round" stroke-linejoin="round" stroke-width="0.5"/>
        <line id="Line_65" data-name="Line 65" x1="2.327" y1="1.828" transform="translate(4.484 4.745)" fill="none" stroke="#263238" stroke-linecap="round" stroke-linejoin="round" stroke-width="0.5"/>
        <line id="Line_66" data-name="Line 66" x1="4.547" y1="3.271" transform="translate(2.744 6.038)" fill="none" stroke="#263238" stroke-linecap="round" stroke-linejoin="round" stroke-width="0.5"/>
        <line id="Line_67" data-name="Line 67" x1="3.169" y1="2.327" transform="translate(2.38 8.257)" fill="none" stroke="#263238" stroke-linecap="round" stroke-linejoin="round" stroke-width="0.5"/>
        <line id="Line_68" data-name="Line 68" x1="3.962" y1="3.225" transform="translate(0.239 12.302)" fill="none" stroke="#263238" stroke-linecap="round" stroke-linejoin="round" stroke-width="0.5"/>
        <line id="Line_69" data-name="Line 69" x1="2.585" y1="1.816" transform="translate(1.518 11.174)" fill="none" stroke="#263238" stroke-linecap="round" stroke-linejoin="round" stroke-width="0.5"/>
      </g>
      <g id="Group_54" data-name="Group 54" transform="translate(120.873 92.282)">
        <ellipse id="Ellipse_28" data-name="Ellipse 28" cx="7.36" cy="7.36" rx="7.36" ry="7.36" transform="translate(17.924 22.729) rotate(-158.202)" fill="none" stroke="#263238" stroke-linecap="round" stroke-linejoin="round" stroke-width="0.5"/>
        <path id="Path_155" data-name="Path 155" d="M67.941,305.965c-2.565-3.01-4.746-4.716-5.587-4.162-1.277.842,1.018,6.576,5.125,12.808s8.474,10.6,9.751,9.759c.841-.555.132-3.232-1.623-6.776" transform="translate(-55.969 -299.924)" fill="none" stroke="#263238" stroke-linecap="round" stroke-linejoin="round" stroke-width="0.5"/>
        <path id="Path_156" data-name="Path 156" d="M68.414,329.921c3.575-1.029,5.86-2.23,5.718-3.19-.224-1.513-6.391-1.855-13.774-.763s-13.187,3.2-12.963,4.718c.155,1.046,3.152,1.532,7.429,1.371" transform="translate(-47.387 -315.25)" fill="none" stroke="#263238" stroke-linecap="round" stroke-linejoin="round" stroke-width="0.5"/>
        <path id="Path_157" data-name="Path 157" d="M70.175,305.989c2.7-4.87,4.047-8.67,3.132-9.262-1.2-.778-5.846,4.261-10.375,11.255s-7.227,13.293-6.026,14.071c.795.514,3.1-1.516,5.873-4.974" transform="translate(-50.086 -296.648)" fill="none" stroke="#263238" stroke-linecap="round" stroke-linejoin="round" stroke-width="0.5"/>
        <path id="Path_158" data-name="Path 158" d="M102.17,307.6a1.21,1.21,0,1,0,.344-1.676A1.21,1.21,0,0,0,102.17,307.6Z" transform="translate(-96.82 -302.533)" fill="#263238" stroke="#707070" stroke-width="0.5"/>
        <path id="Path_159" data-name="Path 159" d="M90.778,360.286a1.21,1.21,0,1,0,.344-1.676A1.21,1.21,0,0,0,90.778,360.286Z" transform="translate(-81.425 -336.707)" fill="#263238" stroke="#707070" stroke-width="0.5"/>
        <path id="Path_160" data-name="Path 160" d="M72.4,324.556a1.21,1.21,0,1,0,.344-1.676A1.21,1.21,0,0,0,72.4,324.556Z" transform="translate(-56.596 -313.532)" fill="#263238" stroke="#707070" stroke-width="0.5"/>
      </g>
      <g id="Group_55" data-name="Group 55" transform="translate(48.291 35.451)">
        <path id="Path_161" data-name="Path 161" d="M298.151,165.089h-4.14l-2.07-3.586,2.07-3.586h4.14l2.07,3.586Z" transform="translate(-286.824 -149.836)" fill="none" stroke="#263238" stroke-linecap="round" stroke-linejoin="round" stroke-width="0.5"/>
        <path id="Path_162" data-name="Path 162" d="M278.447,194.091l2.07-3.586h4.14" transform="translate(-266.519 -170.972)" fill="none" stroke="#263238" stroke-linecap="round" stroke-linejoin="round" stroke-width="0.5"/>
        <path id="Path_163" data-name="Path 163" d="M280.349,154.885h-4.14l-2.07-3.586,2.07-3.586h4.14l2.07,3.586Z" transform="translate(-262.766 -143.217)" fill="none" stroke="#263238" stroke-linecap="round" stroke-linejoin="round" stroke-width="0.5"/>
        <path id="Path_164" data-name="Path 164" d="M298.151,144.681h-4.14l-2.07-3.586,2.07-3.586h4.14l2.07,3.586Z" transform="translate(-286.824 -136.599)" fill="none" stroke="#263238" stroke-linecap="round" stroke-linejoin="round" stroke-width="0.5"/>
        <circle id="Ellipse_29" data-name="Ellipse 29" cx="0.556" cy="0.556" r="0.556" transform="translate(10.816 7.526)" fill="#263238" stroke="#707070" stroke-width="0.5"/>
        <circle id="Ellipse_30" data-name="Ellipse 30" cx="0.556" cy="0.556" r="0.556" transform="translate(19.461 0)" fill="#263238" stroke="#707070" stroke-width="0.5"/>
        <path id="Path_165" data-name="Path 165" d="M295.65,199.683a.556.556,0,1,0-.556.556A.556.556,0,0,0,295.65,199.683Z" transform="translate(-283.166 -176.564)" fill="#263238" stroke="#707070" stroke-width="0.5"/>
        <circle id="Ellipse_31" data-name="Ellipse 31" cx="0.556" cy="0.556" r="0.556" transform="translate(17.582 18.977)" fill="#263238" stroke="#707070" stroke-width="0.5"/>
        <path id="Path_166" data-name="Path 166" d="M328.012,146.956a.556.556,0,1,0-.556.556A.556.556,0,0,0,328.012,146.956Z" transform="translate(-326.9 -142.365)" fill="#263238" stroke="#707070" stroke-width="0.5"/>
        <circle id="Ellipse_32" data-name="Ellipse 32" cx="0.556" cy="0.556" r="0.556" transform="translate(13.484 18.977)" fill="#263238" stroke="#707070" stroke-width="0.5"/>
        <path id="Path_167" data-name="Path 167" d="M315.035,146.956a.556.556,0,1,0-.556.556A.556.556,0,0,0,315.035,146.956Z" transform="translate(-309.363 -142.365)" fill="#263238" stroke="#707070" stroke-width="0.5"/>
        <path id="Path_168" data-name="Path 168" d="M297.233,177.3a.556.556,0,1,0-.556.556A.556.556,0,0,0,297.233,177.3Z" transform="translate(-285.305 -162.046)" fill="#263238" stroke="#707070" stroke-width="0.5"/>
        <line id="Line_70" data-name="Line 70" x1="4.56" transform="translate(0.556 4.591)" fill="none" stroke="#263238" stroke-linecap="round" stroke-linejoin="round" stroke-width="0.5"/>
        <line id="Line_71" data-name="Line 71" x2="2.669" y2="4.28" transform="translate(11.372 15.253)" fill="none" stroke="#263238" stroke-linecap="round" stroke-linejoin="round" stroke-width="0.5"/>
        <line id="Line_72" data-name="Line 72" y1="3.941" x2="2.435" transform="translate(17.582 0.556)" fill="none" stroke="#263238" stroke-linecap="round" stroke-linejoin="round" stroke-width="0.5"/>
      </g>
      <g id="Group_56" data-name="Group 56" transform="translate(16.78 20.322)">
        <path id="Path_169" data-name="Path 169" d="M378.375,97.359a7.665,7.665,0,0,0-14.792.326" transform="translate(-358.642 -91.864)" fill="none" stroke="#263238" stroke-linecap="round" stroke-linejoin="round" stroke-width="0.5"/>
        <path id="Path_170" data-name="Path 170" d="M362.7,121.285a7.664,7.664,0,0,0,6.794-7.614" transform="translate(-349.449 -106.008)" fill="none" stroke="#263238" stroke-linecap="round" stroke-linejoin="round" stroke-width="0.5"/>
        <path id="Path_171" data-name="Path 171" d="M384.505,113.671a7.663,7.663,0,0,0,7.663,7.663" transform="translate(-379.786 -106.008)" fill="none" stroke="#263238" stroke-linecap="round" stroke-linejoin="round" stroke-width="0.5"/>
        <path id="Path_172" data-name="Path 172" d="M353.555,99.573c-2.4-.307-4-.141-4.251.573-.5,1.428,4.631,4.5,11.451,6.871s12.75,3.127,13.246,1.7c.265-.764-1.077-2-3.425-3.343" transform="translate(-349.271 -96.769)" fill="none" stroke="#263238" stroke-linecap="round" stroke-linejoin="round" stroke-width="0.5"/>
      </g>
      <path id="Path_173" data-name="Path 173" d="M285.723,84.9l-.734,1.488-1.642.239,1.188,1.158-.28,1.635,1.469-.772,1.469.772-.281-1.635,1.188-1.158-1.642-.239Z" transform="translate(-223.391 -67.024)" fill="none" stroke="#263238" stroke-linecap="round" stroke-linejoin="round" stroke-width="0.5"/>
      <g id="Group_57" data-name="Group 57" transform="translate(114.21 8.931)">
        <path id="Path_174" data-name="Path 174" d="M114.1,64.43a4.991,4.991,0,0,0,4.983,4.986q.242,0,.474-.021A4.986,4.986,0,1,0,114.1,64.43Z" transform="translate(-114.104 -59.447)" fill="none" stroke="#263238" stroke-linecap="round" stroke-linejoin="round" stroke-width="0.5"/>
        <path id="Path_175" data-name="Path 175" d="M135.81,74.77a.771.771,0,1,0,.771-.771A.771.771,0,0,0,135.81,74.77Z" transform="translate(-135.01 -68.885)" fill="none" stroke="#263238" stroke-linecap="round" stroke-linejoin="round" stroke-width="0.5"/>
        <path id="Path_176" data-name="Path 176" d="M115.044,79.451a1.246,1.246,0,0,0,.45.959,4.939,4.939,0,0,0,1.451-2.035,1.212,1.212,0,0,0-.643-.179A1.256,1.256,0,0,0,115.044,79.451Z" transform="translate(-107.306 -71.608)" fill="none" stroke="#263238" stroke-linecap="round" stroke-linejoin="round" stroke-width="0.5"/>
        <path id="Path_177" data-name="Path 177" d="M126.824,81.83a4.952,4.952,0,0,0,3.412,1.356q.242,0,.474-.021a1.991,1.991,0,0,0,.042-.411,2.072,2.072,0,0,0-3.929-.924Z" transform="translate(-125.253 -73.217)" fill="none" stroke="#263238" stroke-linecap="round" stroke-linejoin="round" stroke-width="0.5"/>
        <circle id="Ellipse_33" data-name="Ellipse 33" cx="1.147" cy="1.147" r="1.147" transform="translate(5.045 0.713)" fill="none" stroke="#263238" stroke-linecap="round" stroke-linejoin="round" stroke-width="0.5"/>
        <path id="Path_178" data-name="Path 178" d="M124.855,73.02a.53.53,0,1,0,.531-.53A.531.531,0,0,0,124.855,73.02Z" transform="translate(-119.725 -67.907)" fill="none" stroke="#263238" stroke-linecap="round" stroke-linejoin="round" stroke-width="0.5"/>
        <path id="Path_179" data-name="Path 179" d="M134.424,62.435a1.342,1.342,0,0,0,.432.067,1.458,1.458,0,0,0,1.458-1.462,1.55,1.55,0,0,0-.011-.183A4.965,4.965,0,0,0,134.424,62.435Z" transform="translate(-133.486 -60.362)" fill="none" stroke="#263238" stroke-linecap="round" stroke-linejoin="round" stroke-width="0.5"/>
      </g>
      <path id="Path_180" data-name="Path 180" d="M447.422,227.756l-.537-1.208.87-.481a2.731,2.731,0,0,1-.017-.642l-.894-.435.474-1.235.955.275a2.716,2.716,0,0,1,.443-.465l-.325-.94,1.208-.538.481.871a2.732,2.732,0,0,1,.642-.018l.435-.893,1.235.474-.275.955a2.729,2.729,0,0,1,.465.443l.94-.325.538,1.209-.871.481a2.711,2.711,0,0,1,.018.642l.893.435-.474,1.235-.955-.275a2.741,2.741,0,0,1-.443.465l.325.94-1.209.538-.481-.871a2.75,2.75,0,0,1-.642.018l-.435.893-1.235-.474.275-.955a2.728,2.728,0,0,1-.465-.443Zm3.675-.676a1.537,1.537,0,1,0-2.029-.78A1.537,1.537,0,0,0,451.1,227.08Z" transform="translate(-446.844 -155.98)" fill="none" stroke="#263238" stroke-linecap="round" stroke-linejoin="round" stroke-width="0.5"/>
      <path id="Path_181" data-name="Path 181" d="M422.549,241.633l-.73-1.641,1.182-.653a3.7,3.7,0,0,1-.024-.872l-1.213-.59.644-1.677,1.3.374a3.688,3.688,0,0,1,.6-.631l-.441-1.277,1.641-.73.653,1.182a3.7,3.7,0,0,1,.872-.024l.59-1.213,1.677.644-.374,1.3a3.7,3.7,0,0,1,.632.6l1.277-.441.73,1.641-1.182.653a3.7,3.7,0,0,1,.024.872l1.213.59-.644,1.677-1.3-.374a3.717,3.717,0,0,1-.6.632l.441,1.277-1.641.73-.653-1.182a3.7,3.7,0,0,1-.872.024l-.59,1.213-1.677-.644.374-1.3a3.7,3.7,0,0,1-.632-.6Zm4.991-.918a2.087,2.087,0,1,0-2.756-1.059A2.087,2.087,0,0,0,427.539,240.715Z" transform="translate(-415.549 -163.655)" fill="none" stroke="#263238" stroke-linecap="round" stroke-linejoin="round" stroke-width="0.5"/>
    </g>
    <g id="Group_63" data-name="Group 63" transform="translate(99.466 557.394)">
      <g id="Group_61" data-name="Group 61">
        <path id="Path_182" data-name="Path 182" d="M123.934,151.6a22.148,22.148,0,0,0,29.947,9.272c.488-.257.964-.532,1.424-.82s.9-.585,1.331-.9q.782-.567,1.5-1.2s0,0,.006-.006a.94.94,0,0,0,.086-.078.04.04,0,0,1,.011-.009,22.168,22.168,0,1,0-34.3-6.266Z" transform="translate(-121.371 -119.094)" fill="#f33d4b" stroke="#707070" stroke-width="0.5"/>
        <g id="Group_60" data-name="Group 60" clip-path="url(#clip-path)">
          <g id="Group_59" data-name="Group 59" transform="translate(0 0.28)" opacity="0.6">
            <path id="Path_183" data-name="Path 183" d="M212.062,173.669a22.547,22.547,0,0,0,1.627,2.628l.429-.337.738-.39.777-.408-.13-.938.042-.847c.046-.847-.566-.155-1.072-.411a2.844,2.844,0,0,1-.9-1.04,4.376,4.376,0,0,1-.235-1.581,12.794,12.794,0,0,1,.668-1.525l1.258,1.746,1.037-.081,1.033-.541.13-1.388.513-.267.214-.8,2.773-.777.316-.555c.316-.555,1.592-.84,1.592-.84l-.313-.724-.492-.808c-.5-.808-1.009.534-1.009.534l-.587.306-1.089-.914L219.1,162.4l-1.775.1a.79.79,0,0,0-.464-.878c-.59-.232-.33-1.515-.105-1.989s1.04-.091,1.04-.091a10.237,10.237,0,0,0,1.026-1.922c.123-.545-1.722-.365-2.512-.9s-.52-1.648-.134-1.673-.755-2.495-2.952-1.817a1.238,1.238,0,0,1-1.237-.088A22.13,22.13,0,0,0,212.062,173.669Z" transform="translate(-209.5 -141.439)" fill="#fc99ad" stroke="#707070" stroke-width="0.5"/>
            <path id="Path_184" data-name="Path 184" d="M121.724,142.615l.752.945s.32-.763.777-.348l.689.625.51,1.427.914.59.559-.292.527-.281.573-.3.548,1.04.446.843a5.383,5.383,0,0,1-.8,1.142l-.97,1.711-1.156.608a8.982,8.982,0,0,0-1.465.176l-.812.425.288,1.76s.611.994,1.019.72l.411-.271.668,2.312.028,1.272s.4.165.8.3.148.063.987.323.773.249,1.455.443a9.182,9.182,0,0,1,1.669.78l-.06,1.223,1.606.235.9-.478-.221-.773-.105-1.209.123-.9.387-.8-1.082-.98.239-.615.615-1.223,1.3.7.668.358,1.511-.678.165-.917.513-1.655.471-1.026L138,148.7l.211-.973-.471-.893-.249-.471.77-1.037.211-.738,1.3-1.177s-.376-.025-.292-.548-.741-1.406-.741-1.406c-.467.246-1.869,1.223-1.869,1.223l-1.226.169c-.014,0-.246-.007-.485-.464a6.569,6.569,0,0,0-.977-1.17s.566-1.964.162-2.228-.815-1.55-.815-1.55l-.323-.615s.763-.334.907-.738,2.024.134,2.024.134l1.3.9.991.787.443.84s.9-1.086.907-.478a8.626,8.626,0,0,0,.408,1.831s-.186.1.06.569.513.446,1.068.513a13.511,13.511,0,0,0,2.094-.144s.351,1.3.109,1.525l-.239.218s.376.945.748.748.907-.478.907-.478l1.269.513,1.392,1.553.313-.063a22.166,22.166,0,0,0-18.445-25.16c-.081.358-.169.682-.169.682l.341,1.736.45.857.387.734.545,1.033-1.356,1.286.3,1.522.755.474.218,1.142-1.3,2.534-.365.994a3.482,3.482,0,0,1,.313,1.518,2.029,2.029,0,0,1-.85,1.325c-.692.372-1.6.819-1.6.819l.074,1.413.313.365-.52,1.515c-1.585.622-1.434,1.142-1.585.622l-.155-.517-1.079-.39-1.374,1.641a.951.951,0,0,0-.808.429C121.594,142.109,120.969,141.67,121.724,142.615Z" transform="translate(-103.795 -119.89)" fill="#fc99ad" stroke="#707070" stroke-width="0.5"/>
            <path id="Path_185" data-name="Path 185" d="M125.607,205.156c-.039.5.594,1.124.594,1.124l-.517.271-.158,1.392.39.745a22.076,22.076,0,0,0,6.132-9l-.281-1.49-1.24-.176s-1.11-.738-1.6-.541-.942,1.4-.942,1.4-.362,1.63-.306,1.6l.007,0,.021.014-.028-.011-.506.267-.144.643.706,1.335,1.132,0s.225-.119.246.467a1.425,1.425,0,0,1-.587,1.03l-1.223-.313-.327-1.265-1.2-.235s.172.777-.109.924l-.285.151-.169.928A.833.833,0,0,1,125.607,205.156Z" transform="translate(-89.054 -170.192)" fill="#fc99ad" stroke="#707070" stroke-width="0.5"/>
            <path id="Path_186" data-name="Path 186" d="M147.215,222.838c.109-.3.154-.563.9-.958s.708-.252,1,.073a1.075,1.075,0,0,0,1.118.4c.49-.11.235.446.235.446l-.117,1.5,1.387,1.373q-.642.47-1.331.9l-.3-.906-2.306.686c.489-.146.2-.814.2-.814l.493-.26S147.105,223.135,147.215,222.838Z" transform="translate(-116.474 -185.886)" fill="#fc99ad" stroke="#707070" stroke-width="0.5"/>
            <path id="Path_187" data-name="Path 187" d="M196.033,201.439l.756-.763.863.273.369.7.266.5-.357.686-.708.852-.4-.765a2.541,2.541,0,0,1-1.7-.643C194.538,201.632,196.033,201.439,196.033,201.439Z" transform="translate(-179.81 -172.288)" fill="#fc99ad" stroke="#707070" stroke-width="0.5"/>
            <path id="Path_188" data-name="Path 188" d="M196.925,190.381l-1.406.741-.055-.331a1.945,1.945,0,0,0-.381-.723l1.077-1.137Z" transform="translate(-178.485 -164.67)" fill="#fc99ad" stroke="#707070" stroke-width="0.5"/>
            <path id="Path_189" data-name="Path 189" d="M178.473,238.059l.405-.592.469-.247h1.439l.818,1.552s.782-.107,1.813-.2.775.333.775.333l.269.975a22.152,22.152,0,0,1-7.782-.417,10.3,10.3,0,0,1,.921-.567Z" transform="translate(-159.553 -195.991)" fill="#fc99ad" stroke="#707070" stroke-width="0.5"/>
          </g>
        </g>
        <path id="Path_191" data-name="Path 191" d="M123.934,151.6a22.148,22.148,0,0,0,29.947,9.272c.488-.257.964-.532,1.424-.82s.9-.585,1.331-.9q.782-.567,1.5-1.2s0,0,.006-.006a.94.94,0,0,0,.086-.078.04.04,0,0,1,.011-.009,22.168,22.168,0,1,0-34.3-6.266Z" transform="translate(-121.371 -119.094)" fill="none" stroke="#263238" stroke-linecap="round" stroke-linejoin="round" stroke-width="0.5"/>
      </g>
      <path id="Path_192" data-name="Path 192" d="M176.679,239.468a22.152,22.152,0,0,0,7.782.417l-.269-.975s.254-.424-.775-.333-1.813.2-1.813.2l-.818-1.552h-1.439l-.469.247-.405.592-.873.842A10.3,10.3,0,0,0,176.679,239.468Z" transform="translate(-159.553 -195.711)" fill="none" stroke="#263238" stroke-linecap="round" stroke-linejoin="round" stroke-width="0.5"/>
      <g id="Group_62" data-name="Group 62" transform="translate(2.485 0.278)">
        <path id="Path_193" data-name="Path 193" d="M209.5,153.146a1.237,1.237,0,0,0,1.236.087c2.2-.68,3.337,1.789,2.952,1.816s-.654,1.137.134,1.673,2.634.358,2.513.9a10.3,10.3,0,0,1-1.025,1.92s-.808-.379-1.04.094-.488,1.756.1,1.989a.791.791,0,0,1,.464.879l1.777-.1.286,1.312,1.09.914.585-.308s.514-1.34,1.009-.532l.492.806.315.724s-1.276.285-1.594.841l-.316.554-2.771.779-.216.8-.512.27-.13,1.385-1.034.542-1.034.082-1.261-1.748a12.8,12.8,0,0,0-.667,1.526,4.351,4.351,0,0,0,.234,1.581,2.826,2.826,0,0,0,.9,1.04c.5.259,1.115-.434,1.071.413l-.041.845.128.938-.777.409-.737.388-.428.338" transform="translate(-209.496 -141.439)" fill="none" stroke="#263238" stroke-linecap="round" stroke-linejoin="round" stroke-width="0.5"/>
        <path id="Path_194" data-name="Path 194" d="M148.6,145.049l-.31.061-1.394-1.554-1.266-.513-.907.478c-.374.2-.75-.746-.75-.746l.241-.221c.243-.222-.11-1.525-.11-1.525a13.352,13.352,0,0,1-2.093.147c-.556-.067-.82-.046-1.068-.515s-.06-.568-.06-.568a8.539,8.539,0,0,1-.408-1.831c0-.607-.9.477-.9.477l-.443-.841-.993-.787-1.294-.9s-1.88-.54-2.026-.134-.906.738-.906.738l.323.614s.414,1.28.817,1.549-.163,2.229-.163,2.229a6.6,6.6,0,0,1,.978,1.171c.247.469.484.465.484.465l1.228-.169s1.4-.978,1.87-1.225c0,0,.823.883.74,1.4s.29.55.29.55l-1.3,1.176-.21.738-.771,1.036.25.474.471.893-.208.972-.839,1.13-.47,1.026-.513,1.657-.165.916-1.51.678-.668-.359-1.3-.7-.615,1.223-.242.615,1.082.979-.384.8-.125.9.107,1.208.223.773-.9.476-1.6-.233.056-1.225a9.3,9.3,0,0,0-1.667-.78c-.683-.194-.614-.182-1.455-.441s-.582-.19-.986-.325-.8-.3-.8-.3l-.03-1.274-.666-2.313-.411.271c-.41.273-1.02-.719-1.02-.719l-.287-1.762.81-.427a9.135,9.135,0,0,1,1.465-.173l1.159-.61.967-1.709a5.422,5.422,0,0,0,.805-1.142l-.445-.843-.548-1.04-.573.3-.529.278-.559.295-.912-.594-.51-1.426-.689-.624c-.458-.415-.777.346-.777.346l-.752-.945c-.754-.943-.131-.506.255-.991a.951.951,0,0,1,.81-.427l1.375-1.642,1.078.391.154.516c.153.519,0,0,1.584-.624l.522-1.513-.313-.365-.076-1.413s.913-.445,1.6-.818a2.037,2.037,0,0,0,.851-1.327,3.463,3.463,0,0,0-.311-1.516l.364-1,1.3-2.534-.22-1.14-.753-.475-.3-1.52,1.356-1.287-.545-1.033-.387-.734-.452-.857-.338-1.738s.085-.32.167-.682" transform="translate(-106.985 -119.887)" fill="none" stroke="#263238" stroke-linecap="round" stroke-linejoin="round" stroke-width="0.5"/>
        <path id="Path_195" data-name="Path 195" d="M134.172,214.368a.472.472,0,0,1,.092-.084.04.04,0,0,1,.011-.009l-.392-.744.157-1.39.516-.272s-.629-.625-.592-1.123a.836.836,0,0,0-.4-.751l.168-.927.282-.149c.282-.149.111-.927.111-.927l1.2.235.328,1.265,1.221.313a1.426,1.426,0,0,0,.588-1.027c-.022-.588-.247-.469-.247-.469l-1.131,0-.7-1.336.141-.64.51-.268" transform="translate(-99.895 -175.78)" fill="none" stroke="#263238" stroke-linecap="round" stroke-linejoin="round" stroke-width="0.5"/>
        <path id="Path_196" data-name="Path 196" d="M125.218,200.47l0,0c-.057.03.3-1.6.3-1.6s.449-1.193.941-1.4,1.6.542,1.6.542l1.24.176.282,1.489" transform="translate(-89.073 -170.191)" fill="none" stroke="#263238" stroke-linecap="round" stroke-linejoin="round" stroke-width="0.5"/>
        <path id="Path_197" data-name="Path 197" d="M150.111,225.661l.3.906q.688-.426,1.331-.9l-1.387-1.373.117-1.5s.255-.556-.235-.446a1.075,1.075,0,0,1-1.118-.4c-.29-.326-.252-.467-1-.073s-.794.658-.9.958,1.284,2.435,1.284,2.435l-.493.26s.288.668-.2.814Z" transform="translate(-118.959 -185.885)" fill="none" stroke="#263238" stroke-linecap="round" stroke-linejoin="round" stroke-width="0.5"/>
        <path id="Path_198" data-name="Path 198" d="M197.651,200.949l-.863-.273-.756.763s-1.494.194-.912.845a2.541,2.541,0,0,0,1.7.643l.4.765.708-.852.357-.686-.266-.5Z" transform="translate(-182.295 -172.287)" fill="none" stroke="#263238" stroke-linecap="round" stroke-linejoin="round" stroke-width="0.5"/>
        <path id="Path_199" data-name="Path 199" d="M195.084,190.068a1.945,1.945,0,0,1,.381.723l.055.331,1.406-.741-.764-1.45Z" transform="translate(-180.97 -164.669)" fill="none" stroke="#263238" stroke-linecap="round" stroke-linejoin="round" stroke-width="0.5"/>
      </g>
    </g>
    <g id="Group_89" data-name="Group 89" transform="translate(30.025 589.586)">
      <path id="Path_200" data-name="Path 200" d="M304.683,339.244c1.883,1.567,16.392,11.525,37.1,9.921,1.114-9.424,5.362-48.145.531-54.213,0,0-11.723-5.591-22.521-3.243s-15,4.6-15.771,6.543C303.435,299.723,304.268,327.138,304.683,339.244Z" transform="translate(-294.898 -262.871)" fill="#263238" stroke="#707070" stroke-width="0.5"/>
      <path id="Path_201" data-name="Path 201" d="M326.157,280.181c6.22,5.387,14.232,4.248,14.056.112a3.124,3.124,0,0,0-.72-1.448s.091-.137.242-.372c.232-.351.608-.924,1.044-1.592.77-1.191,1.732-2.688,2.4-3.778.562-.928-13.455-9.551-13.455-4.593,0,6.986-3.43,8.3-3.43,8.3C325.015,277.332,323.813,278.154,326.157,280.181Z" transform="translate(-300.907 -247.209)" fill="#fff" stroke="#263238" stroke-linecap="round" stroke-linejoin="round" stroke-width="0.5"/>
      <path id="Path_202" data-name="Path 202" d="M382.177,334.9s1.253,4.3.657,5.532" transform="translate(-360.857 -291.26)" fill="none" stroke="#fff" stroke-linecap="round" stroke-linejoin="round" stroke-width="0.5"/>
      <path id="Path_203" data-name="Path 203" d="M334.785,299.357c0,4.151,12.38,8.216,16.008,4.053" transform="translate(-312.002 -268.206)" fill="none" stroke="#fff" stroke-linecap="round" stroke-linejoin="round" stroke-width="0.5"/>
      <path id="Path_204" data-name="Path 204" d="M331.71,285.73a10.645,10.645,0,0,0,4.691,5.57,1.455,1.455,0,0,1,.833-.658,1.152,1.152,0,0,1,.337-.011c.232-.351.608-.924,1.044-1.592A42.307,42.307,0,0,0,331.71,285.73Z" transform="translate(-298.744 -259.367)" fill="#263238" stroke="#707070" stroke-width="0.5"/>
      <g id="Group_64" data-name="Group 64" transform="translate(25.719)">
        <path id="Path_205" data-name="Path 205" d="M309.172,237.183s.04,3.086.693,3.712c4.9,4.7,9.7,5.074,10.487,3.834,5.323-8.347,4.065-10.549,4.607-11.97.959-2.51,2.135-6.606,1.617-9.088-1.159-5.543-11.6-9.826-17.093-4.268-2.635,2.669-3.468,8.457-2.912,13.277" transform="translate(-303.659 -214.664)" fill="#fff" stroke="#263238" stroke-linecap="round" stroke-linejoin="round" stroke-width="0.5"/>
        <path id="Path_206" data-name="Path 206" d="M308.192,254.381s1.463-.657,1.781.127" transform="translate(-287.556 -238.867)" fill="none" stroke="#263238" stroke-linecap="round" stroke-linejoin="round" stroke-width="0.5"/>
        <path id="Path_207" data-name="Path 207" d="M327.789,254.042s-3.047-1.276-4.417.272" transform="translate(-310.706 -238.494)" fill="none" stroke="#263238" stroke-linecap="round" stroke-linejoin="round" stroke-width="0.5"/>
        <path id="Path_208" data-name="Path 208" d="M329.6,259.732c-.05.457.174.857.5.892s.63-.306.68-.764-.174-.857-.5-.893S329.646,259.275,329.6,259.732Z" transform="translate(-315.884 -242.008)" fill="#263238" stroke="#707070" stroke-width="0.5"/>
        <path id="Path_209" data-name="Path 209" d="M312.618,260.126c-.05.457.174.857.5.892s.63-.306.679-.764-.173-.857-.5-.892S312.668,259.669,312.618,260.126Z" transform="translate(-292.94 -242.263)" fill="#263238" stroke="#707070" stroke-width="0.5"/>
        <path id="Path_210" data-name="Path 210" d="M316.488,258.124c-.425.685-.193,1.854.368,3.458s.067,2.187-2.089,2.348" transform="translate(-296.962 -241.462)" fill="#fff" stroke="#263238" stroke-linecap="round" stroke-linejoin="round" stroke-width="0.5"/>
        <path id="Path_211" data-name="Path 211" d="M325.417,280.783a14.13,14.13,0,0,1-4.1-.962" transform="translate(-307.612 -255.535)" fill="none" stroke="#263238" stroke-linecap="round" stroke-linejoin="round" stroke-width="0.5"/>
        <path id="Path_212" data-name="Path 212" d="M299.3,220.024c0-2.088,2.059-6.372,5.675-6.852h0c2.074-2.172,5.036-2.971,8.627-2.145,8.3,1.908,10.824,10.1,11.188,11.458.035.126.05.2.05.2l-2.221-.564.958,1.868-1.165.769.267.3-1.348,1.3.422-2.374a10.78,10.78,0,0,0-2.023-3.676,5.733,5.733,0,0,1,1.157,2.878c-.7-1.825-4.92-3.5-4.92-3.5a8.281,8.281,0,0,1,2.1,3.282c-1.3-1.6-4.349-2.64-6.3-3.191a8.781,8.781,0,0,1-3.192,4.159,3.211,3.211,0,0,0-1.355,2.646,8.19,8.19,0,0,0-3.156,4.345l-1.7,2.326S299.3,229.464,299.3,220.024Z" transform="translate(-299.303 -210.707)" fill="#263238" stroke="#707070" stroke-width="0.5"/>
        <path id="Path_213" data-name="Path 213" d="M356.449,249.863c.569-1.221-1.5-4.522-2.961-4.113-.823.23-1.9,1.73-2.107,3.307s.9,4.554,2.093,5.217c.754.421,1.375-.726,1.375-.726" transform="translate(-349.298 -233.413)" fill="#fff" stroke="#263238" stroke-linecap="round" stroke-linejoin="round" stroke-width="0.5"/>
      </g>
      <g id="Group_65" data-name="Group 65" transform="translate(0 66.81)">
        <path id="Path_214" data-name="Path 214" d="M219.03,410.116l-39.7-9.281L96.511,410.4l21.319,14.583Z" transform="translate(-96.511 -400.835)" fill="#fff" stroke="#707070" stroke-width="0.5"/>
        <path id="Path_215" data-name="Path 215" d="M219.03,410.116l-39.7-9.281L96.511,410.4" transform="translate(-96.511 -400.835)" fill="#fff" stroke="#263238" stroke-linecap="round" stroke-linejoin="round" stroke-width="0.5"/>
      </g>
      <path id="Path_216" data-name="Path 216" d="M230.684,419.438l-16.073-7.1-20.32,1.049,9.036,7.726Z" transform="translate(-142.524 -341.484)" fill="#fff" stroke="#263238" stroke-linecap="round" stroke-linejoin="round" stroke-width="0.5"/>
      <g id="Group_66" data-name="Group 66" transform="translate(39.368 31.733)">
        <path id="Path_217" data-name="Path 217" d="M258.2,301.014c5.155,2.108,6.267,6.847,15.025,25.579a9.255,9.255,0,0,1,5.978,5.526,5.687,5.687,0,0,1-5.421,8.33,7.278,7.278,0,0,1-4.907,1.262c-3.3-.139-17.935-22.507-17.935-22.507Z" transform="translate(-250.937 -301.014)" fill="#263238" stroke="#707070" stroke-width="0.5"/>
        <path id="Path_218" data-name="Path 218" d="M277.2,376.927a8.694,8.694,0,0,0-2.927,8.4" transform="translate(-256.452 -350.251)" fill="none" stroke="#fff" stroke-linecap="round" stroke-linejoin="round" stroke-width="0.5"/>
        <path id="Path_219" data-name="Path 219" d="M283.688,379.736a4.639,4.639,0,0,0-3.27,4.248" transform="translate(-265.161 -352.073)" fill="none" stroke="#fff" stroke-linecap="round" stroke-linejoin="round" stroke-width="0.5"/>
        <path id="Path_220" data-name="Path 220" d="M299.667,330.294a20.672,20.672,0,0,0,1.342-10.426" transform="translate(-289.432 -313.243)" fill="none" stroke="#fff" stroke-linecap="round" stroke-linejoin="round" stroke-width="0.5"/>
        <path id="Path_221" data-name="Path 221" d="M304.1,335.942c.215,1.476-1.31,9.332-1.3,17.6" transform="translate(-293.464 -323.668)" fill="none" stroke="#fff" stroke-linecap="round" stroke-linejoin="round" stroke-width="0.5"/>
      </g>
      <g id="Group_67" data-name="Group 67" transform="translate(6.183 33.28)">
        <path id="Path_222" data-name="Path 222" d="M346.722,305.416c-6.449,3.241-7.216,13.211-1.13,25.129,4.3,8.414,10.229,20.835,13.982,21.669s7.412-1.5,7.412-1.5,3.165-.148,4.118-2.4c2.614-6.162-4.031-13.913-6.646-12.056,0,0-8.348-18.156-9.87-19.3" transform="translate(-341.43 -305.416)" fill="#263238" stroke="#707070" stroke-width="0.5"/>
        <path id="Path_223" data-name="Path 223" d="M354.154,401.3c.866-4.24-5.807-9.244-7.244-8.317,0,0-4.958.278-5.7,3.707" transform="translate(-323.881 -362.138)" fill="none" stroke="#fff" stroke-linecap="round" stroke-linejoin="round" stroke-width="0.5"/>
        <path id="Path_224" data-name="Path 224" d="M401.067,391.864c-2.9-5.121-7.947-14.937-7.947-14.937" transform="translate(-388.958 -351.798)" fill="none" stroke="#fff" stroke-linecap="round" stroke-linejoin="round" stroke-width="0.5"/>
        <path id="Path_225" data-name="Path 225" d="M368.114,391.419s-3.475-2.078-6.07-.112" transform="translate(-345.085 -360.577)" fill="none" stroke="#fff" stroke-linecap="round" stroke-linejoin="round" stroke-width="0.5"/>
        <path id="Path_226" data-name="Path 226" d="M377.505,352.862s-1.92-4.209-3.874-8.093-6.4-9.59-8.253-9.868" transform="translate(-355.647 -324.54)" fill="none" stroke="#fff" stroke-linecap="round" stroke-linejoin="round" stroke-width="0.5"/>
      </g>
      <g id="Group_79" data-name="Group 79" transform="translate(25.903 31.098)">
        <g id="Group_69" data-name="Group 69" transform="translate(33.679 15.206)">
          <path id="Path_227" data-name="Path 227" d="M216.131,365.352a2.86,2.86,0,0,0,1.195-.327c5.984-3.117,10.619-8.268,13.416-11.965a44.182,44.182,0,0,0,3-4.438l-1.434-6.142s-1.349,3.5-6.771,6.968-11.863,4.593-13.947,8.068C209.742,360.594,212.993,365.51,216.131,365.352Z" transform="translate(-211.05 -342.48)" fill="#fff" stroke="#707070" stroke-width="0.5"/>
          <g id="Group_68" data-name="Group 68" clip-path="url(#clip-path-2)">
            <path id="Path_228" data-name="Path 228" d="M216.131,365.352a5.815,5.815,0,0,1,.358-1.3c1.255-3.141,8.845-9.386,8.845-9.386a13.959,13.959,0,0,0,5.408-1.609,44.182,44.182,0,0,0,3-4.438l-1.434-6.142s-1.349,3.5-6.771,6.968-11.863,4.593-13.947,8.068C209.742,360.594,212.993,365.51,216.131,365.352Z" transform="translate(-211.05 -342.48)" fill="#f67781" stroke="#707070" stroke-width="0.5" opacity="0.4"/>
          </g>
          <path id="Path_230" data-name="Path 230" d="M216.131,365.352a2.86,2.86,0,0,0,1.195-.327c5.984-3.117,10.619-8.268,13.416-11.965a44.182,44.182,0,0,0,3-4.438l-1.434-6.142s-1.349,3.5-6.771,6.968-11.863,4.593-13.947,8.068C209.742,360.594,212.993,365.51,216.131,365.352Z" transform="translate(-211.05 -342.48)" fill="none" stroke="#263238" stroke-linecap="round" stroke-linejoin="round" stroke-width="0.5"/>
        </g>
        <path id="Path_231" data-name="Path 231" d="M205.115,354.153s.741,3.278,2.7,2.543c1.059-.4,3.086-3.548,3.47-5.134Z" transform="translate(-152.826 -333.164)" fill="#fff" stroke="#263238" stroke-linecap="round" stroke-linejoin="round" stroke-width="0.5"/>
        <g id="Group_72" data-name="Group 72" transform="translate(22.806)">
          <path id="Path_232" data-name="Path 232" d="M234.947,300.031l-1.6-.825s-4.509.04-7.306,2.313a14.751,14.751,0,0,0-3.828,5.3s-9.872-5.451-19.952-2.323l-4.114,22.916,18.9,1.247,11.8-11.218Z" transform="translate(-196.853 -299.206)" fill="#fff" stroke="#263238" stroke-linecap="round" stroke-linejoin="round" stroke-width="0.5"/>
          <g id="Group_71" data-name="Group 71" transform="translate(0 0.177)">
            <path id="Path_233" data-name="Path 233" d="M195.31,328.658s2.217-.067,5.183.032c4.484.141,10.679.647,13.511,2.295l.134-.046,2.593-.9s.018-.025.053-.077c.478-.71,4.333-6.237,9.832-8.49L234.4,299.71a16.528,16.528,0,0,0-12.5,7.653l-2.217.8s-13.195-3.908-20.581-2.5Z" transform="translate(-195.31 -299.71)" fill="#f33d4b" stroke="#707070" stroke-width="0.5"/>
            <g id="Group_70" data-name="Group 70" clip-path="url(#clip-path-3)">
              <path id="Path_234" data-name="Path 234" d="M195.31,329.958c.478-.71,4.333-6.237,9.832-8.49l7.787-21.758a16.528,16.528,0,0,0-12.5,7.653Z" transform="translate(-173.836 -299.71)" fill="#fff" stroke="#707070" stroke-width="0.5" opacity="0.3"/>
              <path id="Path_235" data-name="Path 235" d="M238.24,344.635c4.484.141,10.679.647,13.511,2.295l.134-.046,5.18-21.983s-4.237-.952-5.542-.471C251.523,324.429,242.91,330.787,238.24,344.635Z" transform="translate(-233.057 -315.655)" fill="#fff" stroke="#707070" stroke-width="0.5" opacity="0.3"/>
            </g>
            <path id="Path_237" data-name="Path 237" d="M195.31,328.658s2.217-.067,5.183.032c4.484.141,10.679.647,13.511,2.295l.134-.046,2.593-.9s.018-.025.053-.077c.478-.71,4.333-6.237,9.832-8.49L234.4,299.71a16.528,16.528,0,0,0-12.5,7.653l-2.217.8s-13.195-3.908-20.581-2.5Z" transform="translate(-195.31 -299.71)" fill="none" stroke="#263238" stroke-linecap="round" stroke-linejoin="round" stroke-width="0.5"/>
          </g>
          <line id="Line_73" data-name="Line 73" x1="5.086" y2="21.094" transform="translate(19.292 8.633)" fill="none" stroke="#263238" stroke-linecap="round" stroke-linejoin="round" stroke-width="0.5"/>
          <line id="Line_74" data-name="Line 74" y1="21.081" x2="4.94" transform="translate(21.42 9.423)" fill="none" stroke="#263238" stroke-linecap="round" stroke-linejoin="round" stroke-width="0.5"/>
        </g>
        <g id="Group_73" data-name="Group 73" transform="translate(51.218 8.951)">
          <path id="Path_238" data-name="Path 238" d="M207.966,337.11c1.129-.315,3.4-7.094,2.361-10.011,0,0-1.237-2.147-1.74-2.294-.789-.23-3.965-.163-3.812.371.355,1.236,2.792,1.215,2.792,1.215l.791,1.447-.034.8s-1.147-.836-1.57-.814a14.234,14.234,0,0,0-2.234,1.036c-.764.4-1.23.623-1.059.991.565,1.215,2.976.363,2.976.363l.9,1.364s-.875.151-1.259.2c-.42.048-3.562,2.159-3.467,2.424.375,1.033,3.391-.084,3.391-.084l.534.445s-2.223.575-2.449.658a6.836,6.836,0,0,0-1.686,1.291c.163.913,2.029.241,2.029.241l1.633-.066a2.054,2.054,0,0,0,.874.451" transform="translate(-202.405 -324.679)" fill="#fff" stroke="#263238" stroke-linecap="round" stroke-linejoin="round" stroke-width="0.5"/>
          <path id="Path_239" data-name="Path 239" d="M204.475,335.942s1.043.886,1.327,1.141.2,1.072.2,1.072" transform="translate(-198.557 -331.984)" fill="none" stroke="#263238" stroke-linecap="round" stroke-linejoin="round" stroke-width="0.5"/>
          <path id="Path_240" data-name="Path 240" d="M207.911,347.356a2.407,2.407,0,0,1-.874,1.723c-.275.288.44,1.073-.349,1.635" transform="translate(-201.229 -339.387)" fill="none" stroke="#263238" stroke-linecap="round" stroke-linejoin="round" stroke-width="0.5"/>
        </g>
        <g id="Group_78" data-name="Group 78" transform="translate(0 17.687)">
          <g id="Group_75" data-name="Group 75" transform="translate(0 4.378)">
            <path id="Path_241" data-name="Path 241" d="M318.331,385.146c2.231.608,4.656-3.314,7.615-7.594v0c1.954-2.825,4.139-5.809,6.652-7.741.2-.151.4-.3.608-.439L331.737,362c-3.05,1.6-4.941,4.161-8.107,6.792-5.1,4.241-9.611,6.845-10.862,8.722S314.508,384.1,318.331,385.146Z" transform="translate(-312.48 -362)" fill="#fff" stroke="#707070" stroke-width="0.5"/>
            <g id="Group_74" data-name="Group 74" clip-path="url(#clip-path-4)">
              <path id="Path_242" data-name="Path 242" d="M314.21,391.689c1.954-2.825,4.139-5.809,6.652-7.741a2.466,2.466,0,0,1-.973-.148A20.728,20.728,0,0,0,314.21,391.689Z" transform="translate(-300.744 -376.14)" fill="#92e3a9" stroke="#707070" stroke-width="0.5" opacity="0.4"/>
            </g>
            <path id="Path_244" data-name="Path 244" d="M318.331,385.146c2.231.608,4.656-3.314,7.615-7.594v0c1.954-2.825,4.139-5.809,6.652-7.741.2-.151.4-.3.608-.439L331.737,362c-3.05,1.6-4.941,4.161-8.107,6.792-5.1,4.241-9.611,6.845-10.862,8.722S314.508,384.1,318.331,385.146Z" transform="translate(-312.48 -362)" fill="none" stroke="#263238" stroke-linecap="round" stroke-linejoin="round" stroke-width="0.5"/>
          </g>
          <g id="Group_77" data-name="Group 77" transform="translate(18.431)">
            <path id="Path_245" data-name="Path 245" d="M270.649,361.01a1.22,1.22,0,0,0,.713.569,2.454,2.454,0,0,0,.242.081c.018,0,.042.007.067.014,2.358.615,7.664-.664,7.664-.664a24.7,24.7,0,0,0,3.686-2.042,9.571,9.571,0,0,0,.39-.949l.095-.278s1.251-.7,1.392-1.251.418-.7-.348-.8-4.934,0-4.934,0l4.515-1.841s2.99-1.507,3.268-2.038.625-.882-.9-.671a49.861,49.861,0,0,0-4.867,1.181l-2.614.555,2.614-1.114s5.144-.622,4.171-2.221h-2.92a30.145,30.145,0,0,0-4.934.625c-.85.26-6.473,3.753-6.473,3.753" transform="translate(-270.649 -349.54)" fill="#fff" stroke="#707070" stroke-width="0.5"/>
            <g id="Group_76" data-name="Group 76" clip-path="url(#clip-path-5)">
              <path id="Path_246" data-name="Path 246" d="M282.69,377.325c2.358.615,7.664-.664,7.664-.664a24.7,24.7,0,0,0,3.686-2.042,9.563,9.563,0,0,0,.39-.949l-4.266.478a1.811,1.811,0,0,1,0,1.75C289.69,376.748,284.285,377.613,282.69,377.325Z" transform="translate(-281.667 -365.191)" fill="#f67781" stroke="#707070" stroke-width="0.5" opacity="0.4"/>
            </g>
            <path id="Path_248" data-name="Path 248" d="M270.649,361.01a1.22,1.22,0,0,0,.713.569,2.454,2.454,0,0,0,.242.081c.018,0,.042.007.067.014,2.358.615,7.664-.664,7.664-.664a24.7,24.7,0,0,0,3.686-2.042,9.571,9.571,0,0,0,.39-.949l.095-.278s1.251-.7,1.392-1.251.418-.7-.348-.8-4.934,0-4.934,0l4.515-1.841s2.99-1.507,3.268-2.038.625-.882-.9-.671a49.861,49.861,0,0,0-4.867,1.181l-2.614.555,2.614-1.114s5.144-.622,4.171-2.221h-2.92a30.145,30.145,0,0,0-4.934.625c-.85.26-6.473,3.753-6.473,3.753" transform="translate(-270.649 -349.54)" fill="none" stroke="#263238" stroke-linecap="round" stroke-linejoin="round" stroke-width="0.5"/>
          </g>
          <line id="Line_75" data-name="Line 75" x1="5.136" y2="0.755" transform="translate(26.154 8.201)" fill="none" stroke="#263238" stroke-linecap="round" stroke-linejoin="round" stroke-width="0.5"/>
        </g>
      </g>
      <g id="Group_86" data-name="Group 86" transform="translate(71.953 64.45)">
        <g id="Group_81" data-name="Group 81" transform="translate(0 2.765)">
          <path id="Path_249" data-name="Path 249" d="M173.2,407.48l-12.866,3.878-23.548-5.372s14.383-4.094,14.518-4S173.2,407.48,173.2,407.48Z" transform="translate(-136.785 -401.988)" fill="#92e3a9" stroke="#707070" stroke-width="0.5"/>
          <g id="Group_80" data-name="Group 80" clip-path="url(#clip-path-6)">
            <path id="Path_250" data-name="Path 250" d="M173.2,407.48l-12.866,3.878-23.548-5.372s14.383-4.094,14.518-4S173.2,407.48,173.2,407.48Z" transform="translate(-136.785 -401.988)" fill="rgba(0,0,0,0.7)" stroke="#707070" stroke-width="0.5" opacity="0.3"/>
          </g>
          <path id="Path_252" data-name="Path 252" d="M173.2,407.48l-12.866,3.878-23.548-5.372s14.383-4.094,14.518-4S173.2,407.48,173.2,407.48Z" transform="translate(-136.785 -401.988)" fill="none" stroke="#263238" stroke-linecap="round" stroke-linejoin="round" stroke-width="0.5"/>
        </g>
        <g id="Group_83" data-name="Group 83" transform="translate(13.961)">
          <path id="Path_253" data-name="Path 253" d="M157.323,397.844c.9.063,1.128,3.318.185,4.532l-20.785-4.313-1.668-3.944Z" transform="translate(-135.055 -394.119)" fill="#92e3a9" stroke="#707070" stroke-width="0.5"/>
          <g id="Group_82" data-name="Group 82" clip-path="url(#clip-path-7)">
            <path id="Path_254" data-name="Path 254" d="M157.323,397.844c.9.063,1.128,3.318.185,4.532l-20.785-4.313-1.668-3.944Z" transform="translate(-135.055 -394.119)" fill="#f33d4b" stroke="#707070" stroke-width="0.5" opacity="0.3"/>
          </g>
          <path id="Path_256" data-name="Path 256" d="M157.323,397.844c.9.063,1.128,3.318.185,4.532l-20.785-4.313-1.668-3.944Z" transform="translate(-135.055 -394.119)" fill="none" stroke="#263238" stroke-linecap="round" stroke-linejoin="round" stroke-width="0.5"/>
        </g>
        <path id="Path_257" data-name="Path 257" d="M137.951,398.752a9.774,9.774,0,0,1,.109,2.765l22.451,5.083,11.835-3.478s1.231-2.177.158-3.861l-21.626-3.67Z" transform="translate(-136.939 -395.074)" fill="#fff" stroke="#263238" stroke-linecap="round" stroke-linejoin="round" stroke-width="0.5"/>
        <path id="Path_258" data-name="Path 258" d="M173.406,397.845l-22.268-3.725-13.827,3.5,23.257,4.635Z" transform="translate(-137.177 -394.119)" fill="#f33d4b" stroke="#263238" stroke-linecap="round" stroke-linejoin="round" stroke-width="0.5"/>
        <path id="Path_259" data-name="Path 259" d="M170.607,409.951l-11.776,3.5-19.273-3.878" transform="translate(-135.167 -404.146)" fill="none" stroke="#263238" stroke-linecap="round" stroke-linejoin="round" stroke-width="0.5"/>
        <line id="Line_76" data-name="Line 76" x2="20.725" y2="4.422" transform="translate(1.186 5.79)" fill="none" stroke="#263238" stroke-linecap="round" stroke-linejoin="round" stroke-width="0.5"/>
        <path id="Path_260" data-name="Path 260" d="M149.231,414.567c-.176.018-8.876,2.7-8.876,2.7" transform="translate(-114.071 -407.382)" fill="none" stroke="#263238" stroke-linecap="round" stroke-linejoin="round" stroke-width="0.5"/>
        <line id="Line_77" data-name="Line 77" x1="1.649" y1="0.267" transform="translate(1.23 4.712)" fill="none" stroke="#263238" stroke-linecap="round" stroke-linejoin="round" stroke-width="0.5"/>
        <line id="Line_78" data-name="Line 78" y1="0.196" x2="0.872" transform="translate(24.048 10.336)" fill="none" stroke="#263238" stroke-linecap="round" stroke-linejoin="round" stroke-width="0.5"/>
        <g id="Group_85" data-name="Group 85" transform="translate(34.808 4.188)">
          <path id="Path_261" data-name="Path 261" d="M138.584,406.036a3.1,3.1,0,0,0-.158,3.861A3.659,3.659,0,0,0,138.584,406.036Z" transform="translate(-137.826 -406.036)" fill="#263238" stroke="#707070" stroke-width="0.5"/>
          <g id="Group_84" data-name="Group 84" transform="translate(0)" clip-path="url(#clip-path-8)">
            <path id="Path_262" data-name="Path 262" d="M138.584,406.036a3.1,3.1,0,0,0-.158,3.861A3.659,3.659,0,0,0,138.584,406.036Z" transform="translate(-137.826 -406.036)" fill="rgba(255,255,255,0.7)" stroke="#707070" stroke-width="0.5" opacity="0.3"/>
          </g>
          <path id="Path_264" data-name="Path 264" d="M138.584,406.036a3.1,3.1,0,0,0-.158,3.861A3.659,3.659,0,0,0,138.584,406.036Z" transform="translate(-137.826 -406.036)" fill="none" stroke="#263238" stroke-linecap="round" stroke-linejoin="round" stroke-width="0.5"/>
        </g>
      </g>
      <g id="Group_88" data-name="Group 88" transform="translate(36.951 73.761)">
        <path id="Path_265" data-name="Path 265" d="M277.595,420.615l-22.472.923,2.192,7.735,27.642-1.054Z" transform="translate(-255.123 -420.615)" fill="#fff" stroke="#707070" stroke-width="0.5"/>
        <g id="Group_87" data-name="Group 87" clip-path="url(#clip-path-9)">
          <path id="Path_266" data-name="Path 266" d="M277.595,420.615l-22.472.923,2.192,7.735,27.642-1.054Z" transform="translate(-255.123 -420.615)" fill="#f33d4b" stroke="#707070" stroke-width="0.5" opacity="0.4"/>
        </g>
        <path id="Path_268" data-name="Path 268" d="M277.595,420.615l-22.472.923,2.192,7.735,27.642-1.054Z" transform="translate(-255.123 -420.615)" fill="none" stroke="#263238" stroke-linecap="round" stroke-linejoin="round" stroke-width="0.5"/>
      </g>
    </g>
  </g>
</svg>
