<svg xmlns="http://www.w3.org/2000/svg" xmlns:xlink="http://www.w3.org/1999/xlink" width="336" height="249.5" viewBox="0 0 336 249.5">
  <defs>
    <linearGradient id="linear-gradient" x1="0.5" x2="0.676" y2="1.161" gradientUnits="objectBoundingBox">
      <stop offset="0" stop-color="#398ce0"/>
      <stop offset="1" stop-color="#4d68d4"/>
    </linearGradient>
    <linearGradient id="linear-gradient-2" x1="0.072" x2="0.771" y2="1.163" gradientUnits="objectBoundingBox">
      <stop offset="0" stop-color="#55dfa2"/>
      <stop offset="1" stop-color="#37be81"/>
    </linearGradient>
    <filter id="Rectangle_106" x="4.5" y="0" width="319" height="244" filterUnits="userSpaceOnUse">
      <feOffset dy="11" input="SourceAlpha"/>
      <feGaussianBlur stdDeviation="6.5" result="blur"/>
      <feFlood flood-color="#398ce0" flood-opacity="0.2"/>
      <feComposite operator="in" in2="blur"/>
      <feComposite in="SourceGraphic"/>
    </filter>
  </defs>
  <g id="Group_17" data-name="Group 17" transform="translate(-12 -276.5)">
    <circle id="Ellipse_20" data-name="Ellipse 20" cx="54" cy="54" r="54" transform="translate(240 418)" fill="url(#linear-gradient)"/>
    <circle id="Ellipse_21" data-name="Ellipse 21" cx="54" cy="54" r="54" transform="translate(12 359)" fill="url(#linear-gradient-2)"/>
    <g transform="matrix(1, 0, 0, 1, 12, 276.5)" filter="url(#Rectangle_106)">
      <rect id="Rectangle_106-2" data-name="Rectangle 106" width="280" height="205" rx="17" transform="translate(24 8.5)" fill="#fff"/>
    </g>
    <path id="Path_60" data-name="Path 60" d="M18.394,1.514c8.284,0,12.033,9.486,12.033,17.77S24.02,32.437,15.736,32.437-3.994,25.329-3.994,17.045,10.11,1.514,18.394,1.514Z" transform="translate(264 292)" fill="#ef6562"/>
    <text id="CONGRATULATIONS_" data-name="CONGRATULATIONS!" transform="translate(176 331)" fill="#121213" font-size="23" font-family="Helvetica-Bold, Helvetica" font-weight="700"><tspan x="-119.043" y="0">CONGRATULATIONS!</tspan></text>
    <path id="Path_275" data-name="Path 275" d="M-117.15,3.7A2.776,2.776,0,0,0-114.4.63V-7.5h-1.125V.63c0,1.275-.645,2.04-1.62,2.04-.18,0-.42-.015-.705-.045l-.135,1.02A8.2,8.2,0,0,0-117.15,3.7Zm8.19-4.74h-1.8V-10.77h-1.125V0h2.925c.255,0,.3-.2.3-.51S-108.7-1.035-108.96-1.035Zm12.24,0h-1.62v-2.58c0-1.68-.645-3.885-3.5-3.885-2.115,0-3.3,1.215-4.38,2.535v-5.8h-1.125v9.735h-1.62c-.255,0-.3.21-.3.525s.045.51.3.51h12.24c.255,0,.3-.2.3-.51S-96.465-1.035-96.72-1.035Zm-5.4-8.88h-1.125V-8.6h1.125Zm-4.1,6.435c.975-1.23,2.325-2.985,4.365-2.985,1.6,0,2.385.945,2.385,2.85v2.58h-6.75ZM-94.98-9.915h-1.125V-8.6h1.125Zm2.01,0H-94.1V-8.6h1.125Zm.6,8.88h-1.6V-7.5H-95.1v6.465h-1.62c-.255,0-.3.21-.3.525s.045.51.3.51h4.35c.27,0,.3-.2.3-.51S-92.1-1.035-92.37-1.035Zm1.62-8.88V-8.6h1.125v-1.32Zm0,8.88h-1.62c-.255,0-.3.21-.3.525s.045.51.3.51h2.745V-7.5H-90.75Zm9.63-9.735v9.735h-3.15v-7.6h-1.125v7.6h-2.4V0h7.8V-10.77ZM-85.14,2.385a.665.665,0,0,1,.69-.7.8.8,0,0,1,.435.12l.45-.66A1.776,1.776,0,0,0-84.45.9a1.49,1.49,0,0,0-1.545,1.47,1.635,1.635,0,0,0,.045.39h-.33v.8h2.9v-.8H-85.05A.813.813,0,0,1-85.14,2.385ZM-77.325,0H-76.2V-10.77h-1.125Zm19.11-1.035H-61.05a2.244,2.244,0,0,1-1.41-.36l-.63.855A3.517,3.517,0,0,0-61.05,0h.9V.18c0,1.635-.81,2.505-2.355,2.505H-66.75c-1.77,0-2.985-.96-2.985-2.31a25.141,25.141,0,0,1,.36-3.03l-1.11-.15A26.879,26.879,0,0,0-70.86.39c0,1.95,1.8,3.33,4.11,3.33H-62.5A3.242,3.242,0,0,0-59.025.2V0h.81c.255,0,.3-.2.3-.51S-57.96-1.035-58.215-1.035Zm-8.3,6.855h1.125V4.5H-66.51Zm2.01,0h1.125V4.5H-64.5ZM-54.45-7.5a12.642,12.642,0,0,0-2.775.375l.12.93a21.751,21.751,0,0,1,2.685-.27c1.665,0,2.49.66,2.49,1.98v3.45h-6.285c-.255,0-.3.21-.3.525s.045.51.3.51h7.41V-4.485C-50.8-6.42-52.185-7.5-54.45-7.5Zm-.57,9.735h1.125V.915H-55.02Zm9.6-3.27h-1.62V-7.5h-1.125V.63c0,1.275-.645,2.04-1.62,2.04-.18,0-.42-.015-.7-.045l-.135,1.02a8.2,8.2,0,0,0,.84.06A2.776,2.776,0,0,0-47.04.63V0h1.62c.255,0,.3-.2.3-.51S-45.165-1.035-45.42-1.035ZM-42.675-7.5H-43.8v6.465h-1.62c-.255,0-.3.21-.3.525s.045.51.3.51h2.745ZM-44.8,2.22h1.125V.9H-44.8ZM-42.795.9V2.22h1.125V.9Zm8.805-8.4a12.656,12.656,0,0,0-2.79.375l.12.93a22.02,22.02,0,0,1,2.685-.27c1.665,0,2.505.66,2.505,1.98v3.45h-2.52c-2.235,0-3.555,1.05-3.555,2.895,0,1.86,1.335,2.91,3.525,2.91a10.763,10.763,0,0,0,2.4-.33l-.165-.9A18.346,18.346,0,0,1-34,3.735c-1.665,0-2.415-.645-2.415-1.875S-35.67,0-33.99,0h3.645V-4.485C-30.345-6.42-31.74-7.5-33.99-7.5Zm8.91,6.465h-1.8V-10.77H-28V0h2.925c.255,0,.3-.2.3-.51S-24.825-1.035-25.08-1.035Zm9.03,0h-1.62v-3.45c0-1.935-1.38-3.015-3.645-3.015a12.642,12.642,0,0,0-2.775.375l.12.93a21.751,21.751,0,0,1,2.685-.27c1.665,0,2.49.66,2.49,1.98v3.45H-25.08c-.255,0-.3.21-.3.525s.045.51.3.51h9.03c.255,0,.3-.2.3-.51S-15.795-1.035-16.05-1.035Zm-5.82,3.27h1.125V.915H-21.87Zm8.55-12.15h-1.125V-8.6h1.125Zm1.62,8.88H-13.3V-7.5H-14.43v6.465h-1.62c-.255,0-.3.21-.3.525s.045.51.3.51h4.35c.27,0,.3-.2.3-.51S-11.43-1.035-11.7-1.035ZM-10.08-7.5v6.465H-11.7c-.255,0-.3.21-.3.525s.045.51.3.51h2.745V-7.5Zm0,9.72h1.125V.9H-10.08Zm16.1-3.255H4.41V-10.77H3.285V.39c0,1.4-1.11,2.3-2.91,2.3C-1.455,2.685-2.7,1.695-2.7.3a36.9,36.9,0,0,1,.57-4.35l-1.125-.165A41.791,41.791,0,0,0-3.825.3c0,2.01,1.83,3.42,4.2,3.42C2.6,3.72,4.41,2.5,4.41.39V0h1.6c.255,0,.3-.2.3-.51S6.27-1.035,6.015-1.035Zm4.35,0H8.76V-7.5H7.635v6.465H6.015c-.255,0-.3.21-.3.525s.045.51.3.51h4.35c.27,0,.3-.2.3-.51S10.635-1.035,10.365-1.035ZM6.615,2.22H7.74V.9H6.615Zm2.01,0H9.75V.9H8.625ZM19.4-1.035h-1.62v-3.45C17.775-6.42,16.4-7.5,14.13-7.5a12.642,12.642,0,0,0-2.775.375l.12.93a21.751,21.751,0,0,1,2.685-.27c1.665,0,2.49.66,2.49,1.98v3.45H10.365c-.255,0-.3.21-.3.525s.045.51.3.51H19.4c.255,0,.3-.2.3-.51S19.65-1.035,19.4-1.035Zm-5.82,3.27H14.7V.915H13.575ZM32.22-1.035H30.6V-4.17a23.119,23.119,0,0,0-.45-3.33l-1.11.18a21.743,21.743,0,0,1,.435,3.15v3.135h-2.22a1.605,1.605,0,0,1-.96-.345,6.137,6.137,0,0,0,.195-1.725V-6.75H25.365v3.645c0,1.755-.24,2.07-1.26,2.07h-1.71V-6.75H21.27v5.715H19.395c-.255,0-.3.21-.3.525s.045.51.3.51H24.1A2.391,2.391,0,0,0,25.74-.465,2.721,2.721,0,0,0,27.255,0H32.22c.255,0,.3-.2.3-.51S32.475-1.035,32.22-1.035Zm1.74-8.88H32.835V-8.6H33.96Zm2.01,0H34.845V-8.6H35.97Zm.6,8.88h-1.6V-7.5H33.84v6.465H32.22c-.255,0-.3.21-.3.525s.045.51.3.51h4.35c.27,0,.3-.2.3-.51S36.84-1.035,36.57-1.035Zm1.8-9.735v9.735h-1.8c-.255,0-.3.21-.3.525s.045.51.3.51h2.925V-10.77ZM42.075,0H43.2V-10.77H42.075Zm9.51-9.915H50.46V-8.6h1.125Zm2.01,0H52.47V-8.6H53.6Zm2.97,8.88h-1.6V-7.5H51.885c-2.625,0-3.345,1.17-3.345,3.75S49.26,0,51.885,0h4.68c.27,0,.3-.2.3-.51S56.835-1.035,56.565-1.035Zm-4.68,0c-1.77,0-2.22-.48-2.22-2.715s.45-2.715,2.22-2.715h1.95v5.43Zm9.03,0h-1.6V-7.5H58.185v6.465h-1.62c-.255,0-.3.21-.3.525s.045.51.3.51h4.35c.27,0,.3-.2.3-.51S61.185-1.035,60.915-1.035ZM57.165,2.22H58.29V.9H57.165Zm2.01,0H60.3V.9H59.175Zm6.27-3.255h-1.6V-10.77H62.715v9.735h-1.8c-.255,0-.3.21-.3.525s.045.51.3.51h4.53c.27,0,.3-.2.3-.51S65.715-1.035,65.445-1.035Zm10.08,0H73.92v-2.64c0-2.8-1.275-3.825-3.78-3.825a7.959,7.959,0,0,0-2.64.405,17.015,17.015,0,0,0-.42,3.615,15.349,15.349,0,0,0,.195,2.445h-1.83c-.255,0-.3.21-.3.525s.045.51.3.51h10.08c.27,0,.3-.2.3-.51S75.795-1.035,75.525-1.035Zm-7.11,0a14.679,14.679,0,0,1-.21-2.445,15.65,15.65,0,0,1,.27-2.82,8.242,8.242,0,0,1,1.665-.165c2,0,2.655.69,2.655,2.79v2.64Zm10.89,0a3.415,3.415,0,0,1-1.065-2.49,2.771,2.771,0,0,1,2.805-2.94,4.5,4.5,0,0,1,1.5.285l.39-.975a5.819,5.819,0,0,0-1.9-.345,3.849,3.849,0,0,0-3.915,3.975,4.4,4.4,0,0,0,.765,2.49H75.525c-.255,0-.3.21-.3.525s.045.51.3.51h7.59V-1.035ZM92.865-8.7H91.74v1.32h1.125Zm2.01,0H93.75v1.32h1.125Zm5.04,7.665H98.3V-7.5H97.17v6.465H92.76c-2.46,0-3.33-.63-3.33-2.16a13.978,13.978,0,0,1,.36-2.475l-1.1-.21a14.892,14.892,0,0,0-.39,2.685C88.305-1,89.775,0,92.76,0h7.155c.255,0,.3-.2.3-.51S100.17-1.035,99.915-1.035Zm10.08,0H108.39v-2.64c0-2.8-1.275-3.825-3.78-3.825a7.959,7.959,0,0,0-2.64.405,17.015,17.015,0,0,0-.42,3.615,15.349,15.349,0,0,0,.195,2.445h-1.83c-.255,0-.3.21-.3.525s.045.51.3.51H110c.27,0,.3-.2.3-.51S110.265-1.035,110-1.035Zm-7.11,0a14.679,14.679,0,0,1-.21-2.445,15.65,15.65,0,0,1,.27-2.82,8.242,8.242,0,0,1,1.665-.165c2,0,2.655.69,2.655,2.79v2.64Zm8.85-8.88H110.61V-8.6h1.125Zm.885,0V-8.6h1.125v-1.32Zm-1,8.88H110c-.255,0-.3.21-.3.525s.045.51.3.51h2.745V-7.5h-1.125ZM-100.635,21.5l-1.1.18a24.133,24.133,0,0,1,.435,3.15v3.135h-2.235a1.605,1.605,0,0,1-.96-.345,5.454,5.454,0,0,0,.21-1.725V22.25H-105.4V25.9c0,1.755-.255,2.07-1.275,2.07h-1.695V22.25H-109.5v7.14c0,1.4-1.11,2.3-2.91,2.3-1.83,0-3.075-.99-3.075-2.385a36.9,36.9,0,0,1,.57-4.35l-1.125-.165a41.792,41.792,0,0,0-.57,4.515c0,2.01,1.83,3.42,4.2,3.42,2.22,0,4.035-1.215,4.035-3.33V29h1.695a2.391,2.391,0,0,0,1.635-.465A2.721,2.721,0,0,0-103.53,29h3.36V24.83A23.384,23.384,0,0,0-100.635,21.5Zm1.65,11.205A2.776,2.776,0,0,0-96.24,29.63V21.5h-1.125v8.13c0,1.275-.645,2.04-1.62,2.04-.18,0-.42-.015-.705-.045l-.135,1.02A8.2,8.2,0,0,0-98.985,32.705Zm11.85-4.74h-1.62V25.52c0-3.015-1.41-4.02-3.81-4.02H-93.78v1.035h1.215c1.965,0,2.685.75,2.685,2.985v2.445h-4.68V29h7.425c.255,0,.3-.195.3-.51S-86.88,27.965-87.135,27.965Zm10.08,0H-78.66v-2.64c0-2.805-1.275-3.825-3.78-3.825a7.959,7.959,0,0,0-2.64.405,17.015,17.015,0,0,0-.42,3.615,15.349,15.349,0,0,0,.195,2.445h-1.83c-.255,0-.3.21-.3.525s.045.51.3.51h10.08c.27,0,.3-.195.3-.51S-76.785,27.965-77.055,27.965Zm-7.11,0a14.679,14.679,0,0,1-.21-2.445,15.649,15.649,0,0,1,.27-2.82,8.242,8.242,0,0,1,1.665-.165c2,0,2.655.69,2.655,2.79v2.64Zm8.91-9.735v9.735h-1.8c-.255,0-.3.21-.3.525s.045.51.3.51h2.925V18.23ZM-71.55,29h1.125V18.23H-71.55Zm16.3-1.035h-1.6V18.23h-1.125V29.39c0,1.4-1.11,2.3-2.91,2.3-1.83,0-3.075-.99-3.075-2.385a36.9,36.9,0,0,1,.57-4.35l-1.125-.165a41.792,41.792,0,0,0-.57,4.515c0,2.01,1.83,3.42,4.2,3.42,2.22,0,4.035-1.215,4.035-3.33V29h1.6c.255,0,.3-.195.3-.51S-54.99,27.965-55.245,27.965Zm4.35,0h-1.6V21.5h-1.125v6.465h-1.62c-.255,0-.3.21-.3.525s.045.51.3.51h4.35c.27,0,.3-.195.3-.51S-50.625,27.965-50.9,27.965ZM-53.64,31.22h1.125V29.9H-53.64Zm7.38-12.135h-1.125V20.4h1.125Zm2.01,0h-1.125V20.4h1.125ZM-46.02,21.5c-2.625,0-3.345,1.17-3.345,3.75a4.715,4.715,0,0,0,.585,2.715h-2.115c-.255,0-.3.21-.3.525s.045.51.3.51h7.95V21.5Zm-2.22,3.75c0-2.235.45-2.715,2.22-2.715h1.95v5.43h-1.95C-47.79,27.965-48.24,27.485-48.24,25.25Zm15.03-5.07h-1.125V21.5h1.125Zm5.145,7.785h-1.6V21.5h-1.125v7.89c0,1.4-1.11,2.3-2.91,2.3-1.83,0-3.075-.99-3.075-2.385a36.9,36.9,0,0,1,.57-4.35l-1.125-.165A41.792,41.792,0,0,0-37.9,29.3c0,2.01,1.83,3.42,4.2,3.42,2.22,0,4.035-1.215,4.035-3.33V29h1.6c.255,0,.3-.195.3-.51S-27.81,27.965-28.065,27.965ZM-23.37,21.5a7.959,7.959,0,0,0-2.64.405,17.015,17.015,0,0,0-.42,3.615,15.35,15.35,0,0,0,.195,2.445h-1.83c-.255,0-.3.21-.3.525s.045.51.3.51h8.475V25.325C-19.59,22.52-20.865,21.5-23.37,21.5ZM-25.1,27.965a14.68,14.68,0,0,1-.21-2.445,15.65,15.65,0,0,1,.27-2.82,8.242,8.242,0,0,1,1.665-.165c2,0,2.655.69,2.655,2.79v2.64Zm22.155,0H-4.56V18.23H-5.685v9.735H-10.1c-2.46,0-3.33-.63-3.33-2.16a13.978,13.978,0,0,1,.36-2.475l-1.1-.21a14.891,14.891,0,0,0-.39,2.685C-14.55,28-13.08,29-10.1,29H-2.94c.255,0,.3-.195.3-.51S-2.685,27.965-2.94,27.965Zm-5.16-4.2H-9.765a.813.813,0,0,1-.09-.375.665.665,0,0,1,.69-.7.819.819,0,0,1,.435.135l.45-.675a1.776,1.776,0,0,0-.885-.24,1.49,1.49,0,0,0-1.545,1.47,1.635,1.635,0,0,0,.045.39H-11v.8H-8.1Zm9.51,4.2H-.2V21.5H-1.32v6.465H-2.94c-.255,0-.3.21-.3.525s.045.51.3.51H1.41c.27,0,.3-.195.3-.51S1.68,27.965,1.41,27.965ZM-1.335,31.22H-.21V29.9H-1.335ZM5.94,27.965h-1.6V18.23H3.21v9.735H1.41c-.255,0-.3.21-.3.525s.045.51.3.51H5.94c.27,0,.3-.195.3-.51S6.21,27.965,5.94,27.965ZM13.065,21.5c-2.115,0-3.3,1.215-4.38,2.535V18.23H7.56v9.735H5.94c-.255,0-.3.21-.3.525s.045.51.3.51H16.56V25.385C16.56,23.7,15.915,21.5,13.065,21.5Zm-4.38,4.02c.975-1.23,2.325-2.985,4.365-2.985,1.6,0,2.385.945,2.385,2.85v2.58H8.685Zm15.96-6.435H23.52V20.4h1.125Zm2.01,0H25.53V20.4h1.125Zm2.97,8.88h-1.6V21.5H24.945c-2.625,0-3.345,1.17-3.345,3.75S22.32,29,24.945,29h4.68c.27,0,.3-.195.3-.51S29.9,27.965,29.625,27.965Zm-4.68,0c-1.77,0-2.22-.48-2.22-2.715s.45-2.715,2.22-2.715H26.9v5.43Zm14.19,0h-1.89a5.53,5.53,0,0,1-1.665-.27A6.11,6.11,0,0,0,38.3,23.42v-.9A8.47,8.47,0,0,0,34.44,21.5a8.528,8.528,0,0,0-3.87,1.02v.9a6.11,6.11,0,0,0,2.715,4.275,5.53,5.53,0,0,1-1.665.27h-2c-.255,0-.3.21-.3.525s.045.51.3.51h2a6.7,6.7,0,0,0,2.82-.63,6.584,6.584,0,0,0,2.805.63h1.89c.27,0,.3-.195.3-.51S39.405,27.965,39.135,27.965ZM31.7,23.42v-.27a6.4,6.4,0,0,1,5.475,0v.27c0,1.2-1.11,2.805-2.73,3.75C32.805,26.225,31.7,24.62,31.7,23.42ZM42.9,21.5a12.642,12.642,0,0,0-2.775.375l.12.93a21.751,21.751,0,0,1,2.685-.27c1.665,0,2.49.66,2.49,1.98v3.45H39.135c-.255,0-.3.21-.3.525s.045.51.3.51h7.41V24.515C46.545,22.58,45.165,21.5,42.9,21.5Zm-.57,9.735h1.125v-1.32H42.33ZM48.885,29H50.01V18.23H48.885Zm7.05-1.035h-1.62V21.5H53.19v8.13c0,1.275-.645,2.04-1.62,2.04-.18,0-.42-.015-.7-.045l-.135,1.02a8.2,8.2,0,0,0,.84.06,2.776,2.776,0,0,0,2.745-3.075V29h1.62c.255,0,.3-.195.3-.51S56.19,27.965,55.935,27.965ZM60.63,21.5a7.959,7.959,0,0,0-2.64.405,17.015,17.015,0,0,0-.42,3.615,15.349,15.349,0,0,0,.2,2.445h-1.83c-.255,0-.3.21-.3.525s.045.51.3.51H64.41V25.325C64.41,22.52,63.135,21.5,60.63,21.5Zm-1.725,6.465a14.68,14.68,0,0,1-.21-2.445,15.65,15.65,0,0,1,.27-2.82,8.242,8.242,0,0,1,1.665-.165c1.995,0,2.655.69,2.655,2.79v2.64ZM73,21.5H74.13V20.18H73Zm.645,11.22c2.22,0,4.035-1.215,4.035-3.33V21.5H76.56v7.89c0,1.4-1.11,2.3-2.91,2.3-1.83,0-3.075-.99-3.075-2.385a36.9,36.9,0,0,1,.57-4.35l-1.125-.165a41.792,41.792,0,0,0-.57,4.515C69.45,31.31,71.28,32.72,73.65,32.72ZM86.085,18.23v9.735h-3.15v-7.6H81.81v7.6h-2.4V29h7.8V18.23ZM89.88,29H91V18.23H89.88Zm15.705-1.035h-1.62v-2.64c0-2.805-1.26-3.825-3.765-3.825a7.885,7.885,0,0,0-2.64.405,16.08,16.08,0,0,0-.42,3.615,14.5,14.5,0,0,0,.285,2.955,3.03,3.03,0,0,0-1.08,2.58,18.6,18.6,0,0,0,.375,2.925l1.1-.165a19.441,19.441,0,0,1-.345-2.76C97.47,29.21,98.505,29,99.135,29h6.45c.255,0,.3-.195.3-.51S105.84,27.965,105.585,27.965Zm-6.45,0a3.179,3.179,0,0,0-.66.06,15.027,15.027,0,0,1-.21-2.5,17.248,17.248,0,0,1,.255-2.82,8.284,8.284,0,0,1,1.68-.165c1.98,0,2.64.69,2.64,2.79v2.64Zm8.19-8.88H106.2V20.4h1.125Zm2.01,0H108.21V20.4h1.125Zm.6,8.88h-1.6V21.5h-1.125v6.465h-1.62c-.255,0-.3.21-.3.525s.045.51.3.51h4.35c.27,0,.3-.195.3-.51S110.205,27.965,109.935,27.965ZM112.68,21.5h-1.125v6.465h-1.62c-.255,0-.3.21-.3.525s.045.51.3.51h2.745Zm-2.13,9.72h1.125V29.9H110.55Zm2.01-1.32v1.32h1.125V29.9ZM-51.315,56.965h-1.6V50.5h-3.075c-2.625,0-3.345,1.17-3.345,3.75S-58.62,58-55.995,58h4.68c.27,0,.3-.195.3-.51S-51.045,56.965-51.315,56.965Zm-4.68,0c-1.77,0-2.22-.48-2.22-2.715s.45-2.715,2.22-2.715h1.95v5.43Zm9.315-8.88h-1.125V49.4h1.125Zm2.01,0h-1.125V49.4h1.125Zm2.91,8.88h-1.6V50.5H-46.44c-2.625,0-3.345,1.17-3.345,3.75a4.715,4.715,0,0,0,.585,2.715h-2.115c-.255,0-.3.21-.3.525s.045.51.3.51h9.555c.255,0,.3-.195.3-.51S-41.5,56.965-41.76,56.965Zm-6.9-2.715c0-2.235.45-2.715,2.22-2.715h1.95v5.43h-1.95C-48.21,56.965-48.66,56.485-48.66,54.25Zm12.54-6.165h-1.125V49.4h1.125Zm-.765,2.415c-2.625,0-3.345,1.17-3.345,3.75a4.715,4.715,0,0,0,.585,2.715H-41.76c-.255,0-.3.21-.3.525s.045.51.3.51h7.95V50.5Zm-2.22,3.75c0-2.235.45-2.715,2.22-2.715h1.95v5.43h-1.95C-38.655,56.965-39.1,56.485-39.1,54.25ZM-31.23,58H-30.1V47.23H-31.23Zm11.2-1.035h-1.62V50.5H-24.72c-2.625,0-3.345,1.17-3.345,3.75S-27.345,58-24.72,58h1.95v.4c0,1.545-.675,2.25-2,2.25A10.321,10.321,0,0,1-26.76,60.4l-.24,1a10.992,10.992,0,0,0,2.235.285c2.085,0,3.12-1.305,3.12-3.285V58h1.62c.255,0,.3-.195.3-.51S-19.77,56.965-20.025,56.965Zm-4.695,0c-1.77,0-2.22-.48-2.22-2.715s.45-2.715,2.22-2.715h1.95v5.43Zm14.775,0h-1.6v-2.64c0-2.805-1.275-3.825-3.78-3.825a7.959,7.959,0,0,0-2.64.4,17.015,17.015,0,0,0-.42,3.615,15.35,15.35,0,0,0,.195,2.445h-1.83c-.255,0-.3.21-.3.525s.045.51.3.51h10.08c.27,0,.3-.195.3-.51S-9.675,56.965-9.945,56.965Zm-7.11,0a14.68,14.68,0,0,1-.21-2.445,15.65,15.65,0,0,1,.27-2.82,8.242,8.242,0,0,1,1.665-.165c2,0,2.655.69,2.655,2.79v2.64Zm8.91-9.735v9.735h-1.8c-.255,0-.3.21-.3.525s.045.51.3.51H-7.02V47.23ZM-4.44,58h1.125V47.23H-4.44Zm5.985,3.705A2.776,2.776,0,0,0,4.29,58.63V50.5H3.165v8.13c0,1.275-.645,2.04-1.62,2.04-.18,0-.42-.015-.705-.045l-.135,1.02A8.2,8.2,0,0,0,1.545,61.705Zm8.19-4.74h-1.8V47.23H6.81V58H9.735c.255,0,.3-.195.3-.51S9.99,56.965,9.735,56.965Zm12.24,0h-1.62v-2.58c0-1.68-.645-3.885-3.495-3.885-2.115,0-3.3,1.215-4.38,2.535V47.23H11.355v9.735H9.735c-.255,0-.3.21-.3.525s.045.51.3.51h12.24c.255,0,.3-.195.3-.51S22.23,56.965,21.975,56.965Zm-5.4-8.88H15.45V49.4h1.125Zm-4.1,6.435c.975-1.23,2.325-2.985,4.365-2.985,1.6,0,2.385.945,2.385,2.85v2.58H12.48Zm11.235-6.435H22.59V49.4h1.125Zm2.01,0H24.6V49.4h1.125Zm.6,8.88H24.72V50.5H23.6v6.465h-1.62c-.255,0-.3.21-.3.525s.045.51.3.51h4.35c.27,0,.3-.195.3-.51S26.6,56.965,26.325,56.965Zm1.62-8.88V49.4H29.07v-1.32Zm0,8.88h-1.62c-.255,0-.3.21-.3.525s.045.51.3.51H29.07V50.5H27.945ZM31.74,58h1.125V47.23H31.74Zm19.11-1.035H48.015a2.244,2.244,0,0,1-1.41-.36l-.63.855a3.517,3.517,0,0,0,2.04.54h.9v.18c0,1.635-.81,2.505-2.355,2.505H42.315c-1.77,0-2.985-.96-2.985-2.31a25.141,25.141,0,0,1,.36-3.03l-1.11-.15A26.879,26.879,0,0,0,38.2,58.39c0,1.95,1.8,3.33,4.11,3.33H46.56a3.242,3.242,0,0,0,3.48-3.525V58h.81c.255,0,.3-.195.3-.51S51.1,56.965,50.85,56.965ZM42.555,63.82H43.68V62.5H42.555Zm2.01,0H45.69V62.5H44.565ZM56.49,48.085H55.365V49.4H56.49ZM55.725,50.5c-2.625,0-3.345,1.17-3.345,3.75a4.715,4.715,0,0,0,.585,2.715H50.85c-.255,0-.3.21-.3.525s.045.51.3.51H58.8V50.5Zm-2.22,3.75c0-2.235.45-2.715,2.22-2.715h1.95v5.43h-1.95C53.955,56.965,53.505,56.485,53.505,54.25Z" transform="translate(176 381)" opacity="0.5"/>
    <line id="Line_2" data-name="Line 2" x2="202" transform="translate(75.5 342.5)" fill="none" stroke="#121213" stroke-width="0.3" opacity="0.16"/>
  </g>
</svg>
