<svg xmlns="http://www.w3.org/2000/svg" width="303.718" height="195.62" viewBox="0 0 303.718 195.62">
  <g id="gummy-blackboard" transform="translate(-98.841 -196.71)">
    <g id="Layer_1" data-name="Layer 1" transform="translate(98.841 196.71)">
      <path id="Path_2" data-name="Path 2" d="M443.388,238.96a9.826,9.826,0,0,0-6.961-2.881h-59v0a9.839,9.839,0,1,1,0-19.677v0h16.444a9.842,9.842,0,1,0,0-19.685h-96.7a9.842,9.842,0,0,0,0,19.685h20.964a9.842,9.842,0,0,1,0,19.685h-67.4a9.842,9.842,0,0,0,0,19.685h26.794a9.842,9.842,0,0,1,0,19.685H266.2a9.842,9.842,0,0,0,0,19.685H303.54v19.685H274.763a9.842,9.842,0,0,0,0,19.685h52.456a9.842,9.842,0,0,1,0,19.685H297.892a9.842,9.842,0,0,0,0,19.685H410.185a9.842,9.842,0,0,0,0-19.685H379.75a9.842,9.842,0,0,1,0-19.685h11.167a9.842,9.842,0,1,0,0-19.685H354.675a9.842,9.842,0,0,1,0-19.685h64.634a9.842,9.842,0,0,0,0-19.685H390.535a9.842,9.842,0,0,1,0-19.685h45.892a9.845,9.845,0,0,0,6.962-16.8ZM351.93,272.568a9.826,9.826,0,0,1-6.961,2.881H325.027a9.842,9.842,0,0,1,0-19.685h19.942a9.845,9.845,0,0,1,6.961,16.8Z" transform="translate(-187.117 -196.71)" fill="#7387dd" opacity="0.69"/>
      <rect id="Rectangle_1" data-name="Rectangle 1" width="29.968" height="19.685" rx="9.842" transform="translate(43.079 97.498)" fill="#825d7e" opacity="0.5"/>
      <rect id="Rectangle_2" data-name="Rectangle 2" width="61.979" height="19.685" rx="9.842" transform="translate(55.898 76.846)" fill="#684463"/>
      <rect id="Rectangle_3" data-name="Rectangle 3" width="33.383" height="19.685" rx="9.842" transform="translate(253.077 137.793) rotate(180)" fill="#ecf5ff" opacity="0.69"/>
      <rect id="Rectangle_4" data-name="Rectangle 4" width="24.38" height="19.685" rx="9.842" transform="translate(248.399 78.739)" fill="#ecf5ff" opacity="0.69"/>
      <rect id="Rectangle_5" data-name="Rectangle 5" width="38.088" height="19.685" rx="9.842" transform="translate(93.985 177.163) rotate(180)" fill="#ecf5ff" opacity="0.69"/>
      <rect id="Rectangle_6" data-name="Rectangle 6" width="19.685" height="19.685" rx="9.842" transform="translate(46.35 59.055) rotate(180)" fill="#ecf5ff" opacity="0.69"/>
      <rect id="Rectangle_7" data-name="Rectangle 7" width="303.718" height="9.839" rx="4.919" transform="translate(0 185.781)" fill="#2d4659" opacity="0.56"/>
      <rect id="Rectangle_8" data-name="Rectangle 8" width="7.571" height="37.855" transform="translate(127.517 152.469)" fill="#8bbf98"/>
      <rect id="Rectangle_9" data-name="Rectangle 9" width="4.543" height="37.855" transform="translate(135.088 152.469)" fill="#63916e"/>
      <rect id="Rectangle_10" data-name="Rectangle 10" width="7.571" height="37.855" transform="translate(169.915 152.469)" fill="#8bbf98"/>
      <rect id="Rectangle_11" data-name="Rectangle 11" width="4.543" height="37.855" transform="translate(177.486 152.469)" fill="#63916e"/>
      <rect id="Rectangle_12" data-name="Rectangle 12" width="7.571" height="37.855" transform="translate(201.713 152.469)" fill="#8bbf98"/>
      <rect id="Rectangle_13" data-name="Rectangle 13" width="4.543" height="37.855" transform="translate(209.284 152.469)" fill="#63916e"/>
      <rect id="Rectangle_14" data-name="Rectangle 14" width="4.543" height="30.284" transform="translate(233.649 160.04)" fill="#8bbf98"/>
      <rect id="Rectangle_15" data-name="Rectangle 15" width="3.028" height="30.284" transform="translate(238.192 160.04)" fill="#63916e"/>
      <rect id="Rectangle_16" data-name="Rectangle 16" width="4.543" height="30.284" transform="translate(262.407 160.04)" fill="#8bbf98"/>
      <rect id="Rectangle_17" data-name="Rectangle 17" width="3.028" height="30.284" transform="translate(266.949 160.04)" fill="#63916e"/>
      <rect id="Rectangle_18" data-name="Rectangle 18" width="3.028" height="1.514" transform="translate(266.949 160.04)" fill="#55845f"/>
      <rect id="Rectangle_19" data-name="Rectangle 19" width="4.543" height="1.514" transform="translate(262.407 160.04)" fill="#63916e"/>
      <rect id="Rectangle_20" data-name="Rectangle 20" width="4.543" height="72.682" transform="translate(250.806 117.642)" fill="#8bbf98"/>
      <rect id="Rectangle_21" data-name="Rectangle 21" width="3.028" height="72.682" transform="translate(255.349 117.642)" fill="#63916e"/>
      <rect id="Rectangle_22" data-name="Rectangle 22" width="4.543" height="72.682" transform="translate(279.563 117.642)" fill="#8bbf98"/>
      <rect id="Rectangle_23" data-name="Rectangle 23" width="3.028" height="72.682" transform="translate(284.106 117.642)" fill="#63916e"/>
      <path id="Path_3" data-name="Path 3" d="M407.551,375.48h8.934a2.271,2.271,0,0,1,2.271,2.271v60.568a2.271,2.271,0,0,1-2.271,2.271h-8.934V375.48Z" transform="translate(-290.689 -307.807)" fill="#ef6562"/>
      <rect id="Rectangle_24" data-name="Rectangle 24" width="96.909" height="65.111" rx="6" transform="translate(28.309 67.673)" fill="#ec958b"/>
      <rect id="Rectangle_25" data-name="Rectangle 25" width="56.025" height="87.824" transform="translate(120.648 72.181) rotate(90)" fill="#34515b"/>
      <rect id="Rectangle_26" data-name="Rectangle 26" width="56.025" height="1.136" transform="translate(33.96 72.181) rotate(90)" fill="#d84e4e"/>
      <rect id="Rectangle_27" data-name="Rectangle 27" width="1.42" height="56.025" transform="translate(119.228 72.181)" fill="#284249"/>
      <rect id="Rectangle_28" data-name="Rectangle 28" width="6.897" height="57.54" transform="translate(77.725 132.784)" fill="#d84e4e"/>
      <rect id="Rectangle_29" data-name="Rectangle 29" width="6.897" height="57.54" transform="translate(74.843 132.784)" fill="#ef6562"/>
      <rect id="Rectangle_30" data-name="Rectangle 30" width="6.897" height="2.805" transform="translate(74.843 132.784)" fill="#d84e4e"/>
      <path id="Path_4" data-name="Path 4" d="M258.436,675.48h37.35a4.543,4.543,0,0,1,4.543,4.543v4.543H253.893v-4.543A4.543,4.543,0,0,1,258.436,675.48Z" transform="translate(-195.198 -494.241)" fill="#ef6562"/>
      <path id="Path_5" data-name="Path 5" d="M247.348,675.48H284.7a4.543,4.543,0,0,1,4.543,4.543v4.543H242.8v-4.543A4.543,4.543,0,0,1,247.348,675.48Z" transform="translate(-188.307 -494.241)" fill="#ec958b"/>
      <rect id="Rectangle_31" data-name="Rectangle 31" width="49.969" height="7.227" transform="translate(127.517 145.241)" fill="#8bbf98"/>
      <rect id="Rectangle_32" data-name="Rectangle 32" width="36.341" height="7.227" transform="translate(177.486 145.241)" fill="#63916e"/>
      <rect id="Rectangle_33" data-name="Rectangle 33" width="48.847" height="5.047" transform="translate(124.853 140.194)" fill="#9fd6a3"/>
      <rect id="Rectangle_34" data-name="Rectangle 34" width="49.969" height="1.514" transform="translate(127.517 145.241)" fill="#63916e"/>
      <rect id="Rectangle_35" data-name="Rectangle 35" width="43.745" height="5.047" transform="translate(173.7 140.194)" fill="#83b78d"/>
      <rect id="Rectangle_36" data-name="Rectangle 36" width="36.341" height="6.057" transform="translate(231.512 153.983)" fill="#81b58c"/>
      <rect id="Rectangle_37" data-name="Rectangle 37" width="21.199" height="6.057" transform="translate(267.847 153.983)" fill="#63916e"/>
      <rect id="Rectangle_38" data-name="Rectangle 38" width="24.215" height="13.628" transform="translate(255.349 121.377)" fill="#81b58c"/>
      <rect id="Rectangle_39" data-name="Rectangle 39" width="3.028" height="1.514" transform="translate(284.106 160.04)" fill="#55845f"/>
      <rect id="Rectangle_40" data-name="Rectangle 40" width="4.543" height="1.514" transform="translate(279.563 160.04)" fill="#63916e"/>
      <rect id="Rectangle_41" data-name="Rectangle 41" width="4.543" height="1.514" transform="translate(250.806 160.04)" fill="#63916e"/>
      <rect id="Rectangle_42" data-name="Rectangle 42" width="4.543" height="1.514" transform="translate(233.649 160.04)" fill="#63916e"/>
      <rect id="Rectangle_43" data-name="Rectangle 43" width="3.028" height="1.514" transform="translate(238.192 160.04)" fill="#55845f"/>
      <rect id="Rectangle_44" data-name="Rectangle 44" width="3.039" height="1.514" transform="translate(255.349 160.04)" fill="#55845f"/>
      <rect id="Rectangle_45" data-name="Rectangle 45" width="36.341" height="1.514" transform="translate(177.486 145.241)" fill="#577f5d"/>
      <rect id="Rectangle_46" data-name="Rectangle 46" width="3.568" height="32.114" transform="matrix(0.991, -0.133, 0.133, 0.991, 187.965, 97.64)" fill="#dd5858"/>
      <rect id="Rectangle_47" data-name="Rectangle 47" width="4.014" height="8.437" transform="translate(187.776 98.596) rotate(-7.644)" fill="#ef6562"/>
      <rect id="Rectangle_48" data-name="Rectangle 48" width="0.775" height="0.539" transform="translate(187.107 99.436) rotate(-7.644)" fill="#e8e8e8"/>
      <path id="Path_6" data-name="Path 6" d="M0,0H.553V5.683a.329.329,0,0,1-.329.329H0Z" transform="matrix(0.991, -0.133, 0.133, 0.991, 187.262, 99.891)" fill="#e8e8e8"/>
      <rect id="Rectangle_49" data-name="Rectangle 49" width="3.568" height="0.409" transform="translate(189.119 106.928) rotate(-7.644)" fill="#d35050"/>
      <path id="Path_7" data-name="Path 7" d="M1.136,0h.946A1.136,1.136,0,0,1,3.218,1.136V5.852H0V1.136A1.136,1.136,0,0,1,1.136,0Z" transform="translate(178.722 102.456) rotate(-17.371)" fill="#e8e8e8"/>
      <rect id="Rectangle_50" data-name="Rectangle 50" width="4.763" height="8.233" transform="translate(179.732 108.272) rotate(-17.371)" fill="#35393d"/>
      <path id="Path_8" data-name="Path 8" d="M577.708,488.938l3.694-4.673-.785-2.51-3.694,4.673Z" transform="translate(-395.945 -373.851)" fill="#808284"/>
      <rect id="Rectangle_51" data-name="Rectangle 51" width="4.322" height="16.625" transform="translate(182.401 116.064) rotate(-17.371)" fill="#3b4044"/>
      <rect id="Rectangle_52" data-name="Rectangle 52" width="1.435" height="16.625" transform="translate(183.093 115.847) rotate(-17.371)" fill="#6d6f70" opacity="0.66"/>
      <path id="Path_9" data-name="Path 9" d="M628.438,463.551l-1.489-.22-1.845,3.314,4.144.611Z" transform="translate(-425.886 -362.402)" fill="#c5e1df"/>
      <path id="Path_10" data-name="Path 10" d="M0,0H4.189V26.109A1.531,1.531,0,0,1,2.658,27.64H1.531A1.531,1.531,0,0,1,0,26.109V0Z" transform="translate(199.218 104.242) rotate(8.394)" fill="#b3dbad"/>
      <path id="Path_11" data-name="Path 11" d="M0,0H1.087V27.64H.795A.8.8,0,0,1,0,26.845V0Z" transform="translate(199.218 104.241) rotate(8.394)" fill="#68a575"/>
      <path id="Path_12" data-name="Path 12" d="M0,0H1.087V26.846a.8.8,0,0,1-.795.795H0V0Z" transform="translate(202.214 104.648) rotate(8.398)" fill="#68a575"/>
      <path id="Path_13" data-name="Path 13" d="M631.467,461.1l-.332-1.519a.207.207,0,0,0-.4-.059l-.757,1.359Z" transform="translate(-428.915 -359.951)" fill="#6f5a66"/>
      <path id="Path_14" data-name="Path 14" d="M632.752,463.74l-.706-.1.441,3.651,1.074.159Z" transform="translate(-430.201 -362.591)" fill="#a5ceca"/>
      <path id="Path_15" data-name="Path 15" d="M578.679,507.48h19.685a.757.757,0,0,1,.757.757v21.8h-21.2v-21.8A.757.757,0,0,1,578.679,507.48Z" transform="translate(-396.566 -389.838)" fill="#f2e07c"/>
      <path id="Path_16" data-name="Path 16" d="M625.922,507.48v22.552h3.028v-21.8a.757.757,0,0,0-.757-.757Z" transform="translate(-426.395 -389.838)" fill="#dfbb4d"/>
      <rect id="Rectangle_53" data-name="Rectangle 53" width="11.76" height="11.276" transform="translate(176.183 128.918)" fill="#6e7ee0"/>
      <rect id="Rectangle_54" data-name="Rectangle 54" width="1.303" height="11.276" transform="translate(176.183 128.918)" fill="#7a8ce2"/>
      <rect id="Rectangle_55" data-name="Rectangle 55" width="1.707" height="11.276" transform="translate(187.966 140.194) rotate(180)" fill="#6373c1"/>
      <rect id="Rectangle_56" data-name="Rectangle 56" width="1.067" height="11.276" transform="translate(189.032 140.194) rotate(180)" fill="#dfbb4d"/>
      <rect id="Rectangle_57" data-name="Rectangle 57" width="8.862" height="8.862" transform="translate(141.081 131.332)" fill="#ec958b"/>
      <rect id="Rectangle_58" data-name="Rectangle 58" width="8.862" height="0.406" transform="translate(141.081 131.332)" fill="#ef6562"/>
      <rect id="Rectangle_59" data-name="Rectangle 59" width="4.691" height="8.862" transform="translate(149.944 131.332)" fill="#ef6562"/>
      <path id="Path_17" data-name="Path 17" d="M481.575,553.8H480.1l-.245.708h-.782l1.335-3.719h.867l1.336,3.719h-.788Zm-.739-2.149-.538,1.552h1.075Z" transform="translate(-335.134 -416.755)" fill="#fff"/>
      <rect id="Rectangle_60" data-name="Rectangle 60" width="8.862" height="8.862" transform="translate(153.636 131.332)" fill="#e8b58b"/>
      <rect id="Rectangle_61" data-name="Rectangle 61" width="4.691" height="8.862" transform="translate(162.499 131.332)" fill="#e09d6c"/>
      <path id="Path_18" data-name="Path 18" d="M514.234,550.808c.894,0,1.34.516,1.34,1.138a1.073,1.073,0,0,1-.846,1.069l.888,1.505h-.861l-.82-1.447h-.351v1.447h-.745v-3.713Zm-.027.617h-.622v1.091h.622c.416,0,.6-.218.6-.553S514.622,551.425,514.207,551.425Z" transform="translate(-356.121 -416.764)" fill="#fff"/>
      <rect id="Rectangle_62" data-name="Rectangle 62" width="8.862" height="8.862" transform="translate(138.736 122.469)" fill="#1bb1b2"/>
      <rect id="Rectangle_63" data-name="Rectangle 63" width="4.691" height="8.862" transform="translate(147.598 122.469)" fill="#19a5a1"/>
      <path id="Path_19" data-name="Path 19" d="M475.537,527.4h.793l-1.363,3.713h-.9L472.7,527.4h.8l1.022,2.953Z" transform="translate(-331.176 -402.217)" fill="#fff"/>
      <path id="Path_20" data-name="Path 20" d="M159.572,665.185a10.6,10.6,0,1,1-12.493-17.126Z" transform="translate(-126.113 -477.201)" fill="#ef6562"/>
      <path id="Path_21" data-name="Path 21" d="M154.228,644.713a10.6,10.6,0,1,1,12.493,17.126Z" transform="translate(-133.261 -473.855)" fill="#f2e07c"/>
      <path id="Path_22" data-name="Path 22" d="M166.145,642.986a10.6,10.6,0,0,1-5.323,20.4,10.6,10.6,0,1,0,5.323-20.4Z" transform="translate(-137.359 -474.048)" fill="#a59a63" opacity="0.25"/>
      <path id="Path_23" data-name="Path 23" d="M278.751,453.276c.21-.4.413-.833.606-1.261s.374-.871.546-1.312c.346-.883.656-1.779.922-2.691q.106-.341.195-.684l.182-.687c.106-.461.224-.921.31-1.386s.176-.93.25-1.4.121-.937.184-1.4l.038-.291.179-.167h0a1.363,1.363,0,0,1,.826-.39,1.466,1.466,0,0,1,.8.172,2.984,2.984,0,0,1,.845.707,9.468,9.468,0,0,1,1.018,1.5,28.407,28.407,0,0,1,1.473,3.1q.647,1.575,1.178,3.185a31.1,31.1,0,0,1,.921,3.281.36.36,0,1,1-.7.17v-.008a30.26,30.26,0,0,0-1.083-3.128c-.411-1.03-.856-2.048-1.336-3.044a27.165,27.165,0,0,0-1.578-2.877,8.153,8.153,0,0,0-.937-1.225,1.594,1.594,0,0,0-.449-.349c-.051-.022-.058,0,0,0s.107-.038.092-.021h0l.218-.458c-.065.492-.11.991-.193,1.48s-.158.984-.263,1.468-.214.969-.326,1.453l-.189.719q-.093.36-.2.715c-.279.952-.6,1.889-.964,2.813-.18.462-.372.92-.572,1.375s-.412.9-.655,1.363a.757.757,0,0,1-1.339-.707h0Z" transform="translate(-210.59 -348.897)" fill="#d1d1d1"/>
      <path id="Path_24" data-name="Path 24" d="M279.319,457.806l9.477-.968a.62.62,0,0,1,.144,1.231l-9.445,1.241a.757.757,0,1,1-.2-1.5Z" transform="translate(-210.577 -358.365)" fill="#d1d1d1"/>
      <rect id="Rectangle_64" data-name="Rectangle 64" width="6.423" height="2.271" rx="1.136" transform="translate(272.95 123.199)" fill="#8bbf98"/>
      <rect id="Rectangle_65" data-name="Rectangle 65" width="6.832" height="2.271" rx="1.136" transform="translate(269.534 126.716)" fill="#8bbf98"/>
      <rect id="Rectangle_66" data-name="Rectangle 66" width="15.917" height="2.271" rx="1.136" transform="translate(256.863 130.912)" fill="#8bbf98" opacity="0.74"/>
      <rect id="Rectangle_67" data-name="Rectangle 67" width="10.97" height="2.271" rx="1.136" transform="translate(59.311 183.51)" fill="#ef6562" opacity="0.23"/>
      <rect id="Rectangle_68" data-name="Rectangle 68" width="4.819" height="2.271" rx="1.136" transform="translate(74.075 183.51)" fill="#ef6562" opacity="0.23"/>
      <rect id="Rectangle_69" data-name="Rectangle 69" width="12.398" height="2.271" rx="1.136" transform="translate(85.329 186.349)" fill="#ef6562" opacity="0.23"/>
      <rect id="Rectangle_70" data-name="Rectangle 70" width="4.259" height="2.271" rx="1.136" transform="translate(89.398 186.349)" fill="#ef6562" opacity="0.23"/>
      <rect id="Rectangle_71" data-name="Rectangle 71" width="4.259" height="2.271" rx="1.136" transform="translate(261.332 126.716)" fill="#8bbf98"/>
      <rect id="Rectangle_72" data-name="Rectangle 72" width="11.74" height="2.271" rx="1.136" transform="translate(257.29 123.199)" fill="#8bbf98"/>
      <rect id="Rectangle_73" data-name="Rectangle 73" width="9.122" height="1.253" rx="0.626" transform="translate(132.799 147.602)" fill="#63916e" opacity="0.18"/>
      <rect id="Rectangle_74" data-name="Rectangle 74" width="4.847" height="1.253" rx="0.626" transform="translate(143.089 147.602)" fill="#63916e" opacity="0.18"/>
      <rect id="Rectangle_75" data-name="Rectangle 75" width="9.012" height="1.253" rx="0.626" transform="translate(143.804 149.779)" fill="#63916e" opacity="0.18"/>
      <rect id="Rectangle_76" data-name="Rectangle 76" width="3.562" height="1.253" rx="0.626" transform="translate(163.064 149.779)" fill="#63916e" opacity="0.18"/>
      <rect id="Rectangle_77" data-name="Rectangle 77" width="3.562" height="1.253" rx="0.626" transform="translate(165.409 147.95)" fill="#63916e" opacity="0.18"/>
      <rect id="Rectangle_78" data-name="Rectangle 78" width="10.141" height="1.253" rx="0.626" transform="translate(183.073 149.779)" fill="#8bbf98" opacity="0.26"/>
      <rect id="Rectangle_79" data-name="Rectangle 79" width="3.562" height="1.253" rx="0.626" transform="translate(202.332 149.779)" fill="#8bbf98" opacity="0.26"/>
      <rect id="Rectangle_80" data-name="Rectangle 80" width="6.231" height="1.253" rx="0.626" transform="translate(189.426 147.635)" fill="#8bbf98" opacity="0.26"/>
    </g>
  </g>
</svg>
