<svg xmlns="http://www.w3.org/2000/svg" width="137.699" height="32.884" viewBox="0 0 137.699 32.884">
  <g id="Group_97" data-name="Group 97" transform="translate(-110.001 -84.639)">
    <path id="Path_40" data-name="Path 40" d="M29.315,4.691c8.837,0,26.566,10.712,26.566,19.549S26.873,37.523,18.036,37.523,4,21.8,4,12.962,20.478,4.691,29.315,4.691Z" transform="translate(106 80)" fill="#81b58c" opacity="0.88"/>
    <path id="Path_39" data-name="Path 39" d="M-66.83-17.806h3.886V0H-66.83Zm5.133-2.813-6.351,1.247-.319-1.363,1.334-.348a2.964,2.964,0,0,1-1.131-2.349,2.838,2.838,0,0,1,.855-2.059,2.938,2.938,0,0,1,2.189-.87,4.286,4.286,0,0,1,2.262.7l-.377,1.74a1.9,1.9,0,0,0-.493-.275,1.9,1.9,0,0,0-.725-.131,1.445,1.445,0,0,0-1.088.435,1.449,1.449,0,0,0-.42,1.044,1.526,1.526,0,0,0,.7,1.305l3.161-.841ZM-42.964-3.538V0H-59.175V-3.538h9.309V-4.582q0-3.77-1.421-5.379a4.38,4.38,0,0,0-3.393-1.609h-2.929l-.29-3.045q.9-.2,2.044-.377a14.085,14.085,0,0,1,2.1-.174,7.284,7.284,0,0,1,4.075,1.145,7.409,7.409,0,0,1,2.726,3.437,14.421,14.421,0,0,1,.972,5.626v1.421Zm12.557,0V0H-42.964V-3.538h4.321V-14.5h3.886V-3.538Zm-8.12,5.858h3.567V6.09h-3.567ZM-22.2-14.5V0h-8.207V-3.538h4.321V-14.5Zm-3.683-6.467h3.567v3.77h-3.567ZM-4.742-3.538V0H-11.47V-20.3h3.886V-3.538Zm12.557,0V0H-4.742V-3.538H-.421V-14.5H3.465V-3.538ZM-.3-20.967H3.262v3.77H-.3ZM16.022-14.5V0H7.815V-3.538h4.321V-14.5ZM12.339,2.32h3.567V6.09H12.339ZM33.48-3.538V0H26.752V-20.3h3.886V-3.538Zm12.557,0V0H33.48V-3.538H37.8V-14.5h3.886V-3.538ZM36,2.32H38.99V5.945H36Zm4.408,0H43.4V5.945H40.411ZM57.724-16.762a10.5,10.5,0,0,1,5.409,1.319A8.54,8.54,0,0,1,66.54-11.76,12.259,12.259,0,0,1,67.7-6.293V0H46.037V-3.538h3.045v-.551a5.974,5.974,0,0,1,.769-2.929,6.019,6.019,0,0,1,2.16-2.248,5.808,5.808,0,0,1,3.1-.855,5.662,5.662,0,0,1,3.074.855A6.093,6.093,0,0,1,60.32-7.018a5.921,5.921,0,0,1,.769,2.9v.58h2.726V-6.293q0-3.944-2.132-5.452a8.157,8.157,0,0,0-4.828-1.508,19.4,19.4,0,0,0-2.712.217q-1.522.217-4.016.623l-.319-3.1q2.2-.551,4.176-.9A21.559,21.559,0,0,1,57.724-16.762ZM55.085-6.583a1.867,1.867,0,0,0-1.493.71A2.6,2.6,0,0,0,53-4.147v.609H57.2v-.638a2.506,2.506,0,0,0-.609-1.711A1.925,1.925,0,0,0,55.085-6.583Z" transform="translate(180 111)" fill="#121213"/>
  </g>
</svg>
