<svg xmlns="http://www.w3.org/2000/svg" xmlns:xlink="http://www.w3.org/1999/xlink" width="108.783" height="45.383" viewBox="0 0 108.783 45.383">
  <defs>
    <linearGradient id="linear-gradient" x1="1" y1="0.361" x2="0.116" y2="0.781" gradientUnits="objectBoundingBox">
      <stop offset="0" stop-color="#41c8c2"/>
      <stop offset="1" stop-color="#36b5af"/>
    </linearGradient>
    <linearGradient id="linear-gradient-2" x1="0.934" y1="0.927" x2="0.088" y2="0.228" xlink:href="#linear-gradient"/>
    <linearGradient id="linear-gradient-3" x1="1.142" y1="0.5" x2="0.142" y2="0.471" gradientUnits="objectBoundingBox">
      <stop offset="0" stop-color="#41c8c2"/>
      <stop offset="1" stop-color="#fff"/>
    </linearGradient>
    <linearGradient id="linear-gradient-4" x1="0.82" y1="-0.085" x2="-0.114" y2="0.898" gradientUnits="objectBoundingBox">
      <stop offset="0" stop-color="#646ac2"/>
      <stop offset="0.519" stop-color="#696ed4"/>
      <stop offset="1" stop-color="#bbbfff"/>
    </linearGradient>
  </defs>
  <g id="Group_179" data-name="Group 179" transform="translate(-114.217 -103)">
    <g id="Group_1" data-name="Group 1" transform="translate(114.217 105.617)">
      <path id="Path_3" data-name="Path 3" d="M.011,5.369,8.816,0l33.95,19.562L8.823,38.843,0,33.344s21.879-13.9,21.818-13.781S.088,5.485.011,5.369Z" transform="translate(0.002 42.766) rotate(-90)" fill="#41c8c2"/>
      <path id="Path_5" data-name="Path 5" d="M.008,3.872,6.357,0,30.836,14.105,6.362,28.008,0,24.042s15.776-10.025,15.732-9.937S.063,3.955.008,3.872Z" transform="translate(5.418 36.801) rotate(-90)" fill="url(#linear-gradient)"/>
      <path id="Path_6" data-name="Path 6" d="M.007,3.212,5.274,0,25.582,11.7,5.278,23.235,0,19.945S13.088,11.628,13.051,11.7.052,3.281.007,3.212Z" transform="translate(7.806 34.174) rotate(-90)" fill="url(#linear-gradient-2)"/>
      <path id="Path_7" data-name="Path 7" d="M.007,3.212,5.274,0,25.582,11.7,5.278,23.235,0,19.945S13.088,11.628,13.051,11.7.052,3.281.007,3.212Z" transform="translate(7.806 37.711) rotate(-90)" fill="url(#linear-gradient-3)"/>
      <path id="Path_4" data-name="Path 4" d="M18.048,5.371,8.809,0,0,5.371V33.345l8.809,5.5,9.629-5.5L8.809,28.189V10.4Z" transform="translate(0 42.755) rotate(-90)" fill="url(#linear-gradient-4)"/>
    </g>
    <text id="ofoq" transform="translate(162 134)" fill="#333462" font-size="29" font-family="SegoeUI, Segoe UI"><tspan x="0" y="0">ofoq</tspan></text>
    <text id="software_solution" data-name="software solution" transform="translate(164 146)" fill="#333462" font-size="5" font-family="Aileron-Light, Aileron" font-weight="300"><tspan x="0" y="0">SOFTWARE SOLUTION</tspan></text>
  </g>
</svg>
