<svg xmlns="http://www.w3.org/2000/svg" xmlns:xlink="http://www.w3.org/1999/xlink" width="336" height="151.385" viewBox="0 0 336 151.385">
  <defs>
    <clipPath id="clip-path">
      <path id="Path_132" data-name="Path 132" d="M318.731,183.858c1.968.232,7.062,3.705,7.41,4.053s1.737,1.158,2.316,1.621c0,0,11.925,7.41,12.967,8.1s3.126,2.084,3.01,2.547,6.136,10.652,6.136,10.652,1.853,2.431.116,4.631-3.358.695-4.168.232-7.178-6.484-7.178-6.484l-5.876,14.022s-8.134-5.454-16.817-5.107l5.789-22.693s-7.989-6.021-8.22-8.1S316.763,183.627,318.731,183.858Z" transform="translate(-314.202 -183.836)" fill="#fff" stroke="#263238" stroke-linecap="round" stroke-linejoin="round" stroke-width="0.5"/>
    </clipPath>
  </defs>
  <g id="Group_134" data-name="Group 134" transform="translate(-12 -388.865)">
    <rect id="Rectangle_109" data-name="Rectangle 109" width="336" height="136" rx="20" transform="translate(12 404)" fill="#4c66d5"/>
    <text id="التدريبات" transform="translate(271 462)" fill="#fff" font-size="30" font-family="Cairo-SemiBold, Cairo" font-weight="600"><tspan x="-54" y="0">التدريبات</tspan></text>
    <g id="Group_45" data-name="Group 45" transform="translate(0 24)">
      <g id="Background_Simple" data-name="Background Simple" transform="translate(32.565 365.148)">
        <g id="Group_19" data-name="Group 19">
          <path id="Path_83" data-name="Path 83" d="M63.54,140.467A85.888,85.888,0,0,1,77.852,99.7c13.081-19.345,34.437-29.8,57.667-24.1,21.964,5.391,27.541,29.174,45.841,39.71,14.045,8.086,35.325,21.28,31.92,44.69-1.11,7.629-6.161,13.2-13.091,16.33-9.476,4.277-22.725,2.536-31.172,8.779-9.789,7.235-17.875,17.45-39.156,25.111-16.831,6.058-35.816-1.193-48.535-12.663C65.67,183.444,61.773,160.68,63.54,140.467Z" transform="translate(-63.147 -74.052)" fill="#7a97e3" stroke="rgba(0,0,0,0)" stroke-width="0.5"/>
          <path id="Path_84" data-name="Path 84" d="M63.54,140.467A85.888,85.888,0,0,1,77.852,99.7c13.081-19.345,34.437-29.8,57.667-24.1,21.964,5.391,27.541,29.174,45.841,39.71,14.045,8.086,35.325,21.28,31.92,44.69-1.11,7.629-6.161,13.2-13.091,16.33-9.476,4.277-22.725,2.536-31.172,8.779-9.789,7.235-17.875,17.45-39.156,25.111-16.831,6.058-35.816-1.193-48.535-12.663C65.67,183.444,61.773,160.68,63.54,140.467Z" transform="translate(-63.147 -74.052)" fill="#7a97e3" stroke="rgba(0,0,0,0)" stroke-width="0.5" opacity="0.7"/>
        </g>
      </g>
      <g id="Shadow" transform="translate(25.53 474.506)">
        <g id="Group_20" data-name="Group 20" transform="translate(0)">
          <path id="Path_85" data-name="Path 85" d="M315.165,364.846l2.894-2.861c-2.411-3.49-1.372-6.062.7-8.428,1.247-1.424,4.508-1.209,8.531-.7L349.4,331l3.4,1.277s-9.211,11.213-17.839,21.528c3.587.318,7.191.322,10.178-.674a53.341,53.341,0,0,0,16.173-9.363c10.214.851-5.107,17.45-11.066,22.131-11.933,9.376-18.25,7.674-26.709,1.354-1.524,1.736-2.621,2.932-3.083,3.328l-.09.076C316.557,373.823,311.642,368.329,315.165,364.846Z" transform="translate(-313.954 -331)" fill="#6384dc" stroke="rgba(0,0,0,0)" stroke-width="0.5"/>
          <path id="Path_86" data-name="Path 86" d="M315.064,364.846l2.894-2.861c-2.411-3.49-1.372-6.062.7-8.428,1.247-1.424,4.508-1.209,8.531-.7L349.3,331l3.4,1.277s-9.211,11.213-17.839,21.528c3.587.318,7.191.322,10.178-.674a53.342,53.342,0,0,0,16.173-9.363c10.214.851-4.783,17.895-11.066,22.131-14.026,9.458-18.249,7.674-26.709,1.354-1.524,1.736-2.621,2.932-3.083,3.328l-.09.076C316.457,373.823,311.541,368.329,315.064,364.846Z" transform="translate(-313.854 -331)" fill="#6384dc" stroke="rgba(0,0,0,0)" stroke-width="0.5" opacity="0.5"/>
        </g>
      </g>
      <g id="Plants" transform="translate(137.283 431.225)">
        <g id="Group_24" data-name="Group 24" transform="translate(0)">
          <g id="Group_21" data-name="Group 21" transform="translate(0.089 0)">
            <path id="Path_87" data-name="Path 87" d="M98.04,229.308s-11.193,12.939-11.254,28.967S97.82,287.351,97.82,287.351s11.193-12.939,11.254-28.967S98.04,229.308,98.04,229.308Z" transform="translate(-73.445 -229.308)" fill="#46cc98" stroke="rgba(0,0,0,0)" stroke-width="0.5"/>
            <path id="Path_88" data-name="Path 88" d="M122.369,315.451s-.07,10.533,5.586,17.229,14.9,7.019,14.9,7.019.07-10.533-5.587-17.229S122.369,315.451,122.369,315.451Z" transform="translate(-122.369 -278.788)" fill="#48ce99" stroke="rgba(0,0,0,0)" stroke-width="0.5"/>
            <path id="Path_89" data-name="Path 89" d="M75.81,313.162s.464,10.52-4.936,17.485-14.621,7.737-14.621,7.737-.464-10.521,4.936-17.485S75.81,313.162,75.81,313.162Z" transform="translate(-27.192 -277.473)" fill="#48ce99" stroke="rgba(0,0,0,0)" stroke-width="0.5"/>
          </g>
          <g id="Group_22" data-name="Group 22" transform="translate(0.089 0)" opacity="0.5">
            <path id="Path_90" data-name="Path 90" d="M98.04,229.308s-11.193,12.939-11.254,28.967S97.82,287.351,97.82,287.351s11.193-12.939,11.254-28.967S98.04,229.308,98.04,229.308Z" transform="translate(-73.445 -229.308)" fill="#4ad09b" stroke="rgba(0,0,0,0)" stroke-width="0.5"/>
            <path id="Path_91" data-name="Path 91" d="M122.369,315.451s-.07,10.533,5.586,17.229,14.9,7.019,14.9,7.019.07-10.533-5.587-17.229S122.369,315.451,122.369,315.451Z" transform="translate(-122.369 -278.788)" fill="#48ce99" stroke="rgba(0,0,0,0)" stroke-width="0.5"/>
            <path id="Path_92" data-name="Path 92" d="M75.81,313.162s.464,10.52-4.936,17.485-14.621,7.737-14.621,7.737-.464-10.521,4.936-17.485S75.81,313.162,75.81,313.162Z" transform="translate(-27.192 -277.473)" fill="#48ce99" stroke="rgba(0,0,0,0)" stroke-width="0.5"/>
          </g>
          <g id="Group_23" data-name="Group 23">
            <path id="Path_93" data-name="Path 93" d="M107.417,272.542h0a.268.268,0,0,0-.409-.056l-5.88,5.257a.29.29,0,0,1-.47-.262l.046-12.122a.353.353,0,0,1,.1-.247l8.833-8.9a.364.364,0,0,0,.025-.468h0a.267.267,0,0,0-.41-.028l-8.055,8.12a.289.289,0,0,1-.483-.25l.05-13.338a.354.354,0,0,1,.1-.249l5.844-5.761a.364.364,0,0,0,.029-.467h0a.267.267,0,0,0-.41-.034l-5.075,5a.289.289,0,0,1-.481-.252l.071-18.841a.314.314,0,0,0-.29-.333h0a.313.313,0,0,0-.292.33l-.106,27.927a.287.287,0,0,1-.531.186l-6.557-10.923a.27.27,0,0,0-.4-.086h0a.361.361,0,0,0-.076.46l7.513,12.515.048-.037-.043,11.447a.288.288,0,0,1-.485.245l-7.994-8.188a.266.266,0,0,0-.41.025h0a.364.364,0,0,0,.022.468l8.86,9.076,0,0-.054,14.268a.314.314,0,0,0,.29.333h0a.312.312,0,0,0,.292-.33l.03-7.849a.35.35,0,0,1,.111-.259l6.605-5.905A.364.364,0,0,0,107.417,272.542Z" transform="translate(-75.865 -229.308)" fill="#fff" stroke="rgba(0,0,0,0)" stroke-width="0.5"/>
            <path id="Path_94" data-name="Path 94" d="M76.608,314.68h0a.267.267,0,0,0-.411.026l-8.872,11.3c-.19.242-.541.06-.505-.263l.731-6.588a.326.326,0,0,0-.252-.37h0a.3.3,0,0,0-.325.287l-.952,8.584h.008l-3.465,4.413a.284.284,0,0,1-.506-.183l-.627-6.3a.3.3,0,0,0-.322-.292h0a.324.324,0,0,0-.256.366l.744,7.475a.361.361,0,0,1-.072.258l-4.634,5.9a.364.364,0,0,0,.023.468h0a.267.267,0,0,0,.411-.026l2.5-3.189a.276.276,0,0,1,.235-.11l4.619.318a.307.307,0,0,0,.308-.311h0a.319.319,0,0,0-.273-.351l-3.7-.254a.341.341,0,0,1-.2-.552l3.7-4.717a.277.277,0,0,1,.217-.111l6.607.009a.313.313,0,0,0,.291-.331h0a.313.313,0,0,0-.291-.332l-5.568-.007a.338.338,0,0,1-.216-.552l4.088-5.206a.275.275,0,0,1,.22-.111l4.247.058a.312.312,0,0,0,.295-.327h0a.315.315,0,0,0-.288-.336l-3.231-.044a.339.339,0,0,1-.213-.552l5.953-7.581A.365.365,0,0,0,76.608,314.68Z" transform="translate(-28.232 -278.297)" fill="#fff" stroke="rgba(0,0,0,0)" stroke-width="0.5"/>
            <path id="Path_95" data-name="Path 95" d="M140.432,330.151h0a.3.3,0,0,0-.327.284l-.5,4.184a.283.283,0,0,1-.5.186l-3.851-4.559a.359.359,0,0,1-.08-.255l.5-7.506a.321.321,0,0,0-.268-.355h0a.306.306,0,0,0-.312.306l-.422,6.325a.285.285,0,0,1-.5.2l-4.252-5.033a.362.362,0,0,1-.08-.259l.368-4.821a.322.322,0,0,0-.265-.359h0a.3.3,0,0,0-.315.3l-.28,3.668a.285.285,0,0,1-.5.2l-6.192-7.329a.267.267,0,0,0-.412-.008h0a.365.365,0,0,0-.008.468l9.228,10.923c.2.234.012.619-.267.555l-5.712-1.322a.294.294,0,0,0-.343.258h0a.333.333,0,0,0,.227.391l7.442,1.722v-.009l3.6,4.266a.34.34,0,0,1-.2.561l-5.561.243a.316.316,0,0,0-.279.344h0a.309.309,0,0,0,.3.318l6.6-.288a.273.273,0,0,1,.22.1l4.82,5.705a.267.267,0,0,0,.412.009h0a.366.366,0,0,0,.008-.469l-2.6-3.081a.361.361,0,0,1-.079-.275l.623-5.225A.327.327,0,0,0,140.432,330.151Z" transform="translate(-122.159 -278.663)" fill="#fff" stroke="rgba(0,0,0,0)" stroke-width="0.5"/>
          </g>
        </g>
      </g>
      <g id="Check_List" data-name="Check List" transform="translate(47.909 381.579)">
        <g id="Group_35" data-name="Group 35">
          <path id="Path_96" data-name="Path 96" d="M108.326,206.986l63.224,17.8a3.3,3.3,0,0,0,3.611-1.488l47.949-86.287a1.879,1.879,0,0,0-1.2-2.844l-63.224-17.8a3.3,3.3,0,0,0-3.612,1.488l-47.948,86.287A1.878,1.878,0,0,0,108.326,206.986Z" transform="translate(-106.837 -114.73)" fill="#263238" stroke="#000" stroke-miterlimit="10" stroke-width="0.5"/>
          <path id="Path_97" data-name="Path 97" d="M287.686,339.127s-36.534-8.689-61.125-17.205Z" transform="translate(-222.084 -232.859)" fill="#884849" stroke="rgba(0,0,0,0)" stroke-width="0.5"/>
          <path id="Path_98" data-name="Path 98" d="M115.472,207.092,176.6,224.3l47.28-85.084-61.125-17.2Z" transform="translate(-110.995 -118.029)" fill="#fff" stroke="#263238" stroke-miterlimit="10" stroke-width="0.5"/>
          <g id="Group_26" data-name="Group 26" transform="translate(48.11 16.879)">
            <g id="Group_25" data-name="Group 25" transform="translate(13.332 3.783)">
              <line id="Line_5" data-name="Line 5" x1="4.746" y1="1.336" transform="translate(3.673)" fill="#fff" stroke="#263238" stroke-miterlimit="10" stroke-width="0.5"/>
              <line id="Line_6" data-name="Line 6" x1="29.244" y1="8.231" transform="translate(12.094 2.37)" fill="#fff" stroke="#263238" stroke-miterlimit="10" stroke-width="0.5"/>
              <line id="Line_7" data-name="Line 7" x1="11.789" y1="3.318" transform="translate(1.837 3.305)" fill="#fff" stroke="#263238" stroke-miterlimit="10" stroke-width="0.5"/>
              <line id="Line_8" data-name="Line 8" x1="14.852" y1="4.18" transform="translate(16.841 7.529)" fill="#fff" stroke="#263238" stroke-miterlimit="10" stroke-width="0.5"/>
              <line id="Line_9" data-name="Line 9" x1="5.053" y1="1.422" transform="translate(34.449 12.485)" fill="#fff" stroke="#263238" stroke-miterlimit="10" stroke-width="0.5"/>
              <line id="Line_10" data-name="Line 10" x1="22.966" y1="6.464" transform="translate(0 6.61)" fill="#fff" stroke="#263238" stroke-miterlimit="10" stroke-width="0.5"/>
              <line id="Line_11" data-name="Line 11" x1="9.646" y1="2.715" transform="translate(28.019 14.497)" fill="#fff" stroke="#263238" stroke-miterlimit="10" stroke-width="0.5"/>
            </g>
            <path id="Path_99" data-name="Path 99" d="M247.214,154.952a5.458,5.458,0,0,1,5.97-2.46,3.1,3.1,0,0,1,1.991,4.7,5.458,5.458,0,0,1-5.97,2.46A3.1,3.1,0,0,1,247.214,154.952Z" transform="translate(-246.743 -152.319)" fill="#fff" stroke="#263238" stroke-miterlimit="10" stroke-width="0.5"/>
          </g>
          <g id="Group_28" data-name="Group 28" transform="translate(39.922 31.615)">
            <g id="Group_27" data-name="Group 27" transform="translate(13.332 3.783)">
              <line id="Line_12" data-name="Line 12" x2="4.746" y2="1.336" transform="translate(36.592 9.266)" fill="#fff" stroke="#263238" stroke-miterlimit="10" stroke-width="0.5"/>
              <line id="Line_13" data-name="Line 13" x2="29.244" y2="8.231" transform="translate(3.673)" fill="#fff" stroke="#263238" stroke-miterlimit="10" stroke-width="0.5"/>
              <line id="Line_14" data-name="Line 14" x2="11.789" y2="3.318" transform="translate(27.712 10.588)" fill="#fff" stroke="#263238" stroke-miterlimit="10" stroke-width="0.5"/>
              <line id="Line_15" data-name="Line 15" x2="14.852" y2="4.18" transform="translate(9.645 5.503)" fill="#fff" stroke="#263238" stroke-miterlimit="10" stroke-width="0.5"/>
              <line id="Line_16" data-name="Line 16" x2="5.053" y2="1.422" transform="translate(1.837 3.305)" fill="#fff" stroke="#263238" stroke-miterlimit="10" stroke-width="0.5"/>
              <line id="Line_17" data-name="Line 17" x2="22.966" y2="6.464" transform="translate(14.699 10.748)" fill="#fff" stroke="#263238" stroke-miterlimit="10" stroke-width="0.5"/>
              <line id="Line_18" data-name="Line 18" x2="9.646" y2="2.715" transform="translate(0 6.61)" fill="#fff" stroke="#263238" stroke-miterlimit="10" stroke-width="0.5"/>
            </g>
            <path id="Path_100" data-name="Path 100" d="M266.453,189.575a5.458,5.458,0,0,1,5.97-2.46,3.105,3.105,0,0,1,1.991,4.7,5.459,5.459,0,0,1-5.971,2.46A3.1,3.1,0,0,1,266.453,189.575Z" transform="translate(-265.983 -186.942)" fill="#fff" stroke="#263238" stroke-miterlimit="10" stroke-width="0.5"/>
          </g>
          <g id="Group_30" data-name="Group 30" transform="translate(30.614 45.074)">
            <g id="Group_29" data-name="Group 29" transform="translate(14.452 5.06)">
              <line id="Line_19" data-name="Line 19" x1="4.746" y1="1.336" transform="translate(3.673)" fill="#fff" stroke="#263238" stroke-miterlimit="10" stroke-width="0.5"/>
              <line id="Line_20" data-name="Line 20" x1="29.244" y1="8.231" transform="translate(12.094 2.37)" fill="#fff" stroke="#263238" stroke-miterlimit="10" stroke-width="0.5"/>
              <line id="Line_21" data-name="Line 21" x1="11.789" y1="3.318" transform="translate(1.837 3.305)" fill="#fff" stroke="#263238" stroke-miterlimit="10" stroke-width="0.5"/>
              <line id="Line_22" data-name="Line 22" x1="14.852" y1="4.18" transform="translate(16.841 7.529)" fill="#fff" stroke="#263238" stroke-miterlimit="10" stroke-width="0.5"/>
              <line id="Line_23" data-name="Line 23" x1="5.053" y1="1.422" transform="translate(34.449 12.485)" fill="#fff" stroke="#263238" stroke-miterlimit="10" stroke-width="0.5"/>
              <line id="Line_24" data-name="Line 24" x1="22.966" y1="6.464" transform="translate(0 6.61)" fill="#fff" stroke="#263238" stroke-miterlimit="10" stroke-width="0.5"/>
              <line id="Line_25" data-name="Line 25" x1="9.646" y1="2.715" transform="translate(28.019 14.497)" fill="#fff" stroke="#263238" stroke-miterlimit="10" stroke-width="0.5"/>
            </g>
            <ellipse id="Ellipse_24" data-name="Ellipse 24" cx="3.61" cy="4.567" rx="3.61" ry="4.567" transform="matrix(-0.366, -0.931, 0.931, -0.366, 2.641, 10.06)" fill="#fff" stroke="#263238" stroke-miterlimit="10" stroke-width="0.5"/>
          </g>
          <g id="Group_32" data-name="Group 32" transform="translate(23.545 61.087)">
            <g id="Group_31" data-name="Group 31" transform="translate(13.332 3.783)">
              <line id="Line_26" data-name="Line 26" x2="4.746" y2="1.336" transform="translate(36.592 9.266)" fill="#fff" stroke="#263238" stroke-miterlimit="10" stroke-width="0.5"/>
              <line id="Line_27" data-name="Line 27" x2="29.244" y2="8.231" transform="translate(3.673)" fill="#fff" stroke="#263238" stroke-miterlimit="10" stroke-width="0.5"/>
              <line id="Line_28" data-name="Line 28" x2="11.789" y2="3.318" transform="translate(27.712 10.588)" fill="#fff" stroke="#263238" stroke-miterlimit="10" stroke-width="0.5"/>
              <line id="Line_29" data-name="Line 29" x2="14.852" y2="4.18" transform="translate(9.645 5.503)" fill="#fff" stroke="#263238" stroke-miterlimit="10" stroke-width="0.5"/>
              <line id="Line_30" data-name="Line 30" x2="5.053" y2="1.422" transform="translate(1.837 3.305)" fill="#fff" stroke="#263238" stroke-miterlimit="10" stroke-width="0.5"/>
              <line id="Line_31" data-name="Line 31" x2="22.966" y2="6.464" transform="translate(14.699 10.748)" fill="#fff" stroke="#263238" stroke-miterlimit="10" stroke-width="0.5"/>
              <line id="Line_32" data-name="Line 32" x2="9.646" y2="2.715" transform="translate(0 6.611)" fill="#fff" stroke="#263238" stroke-miterlimit="10" stroke-width="0.5"/>
            </g>
            <path id="Path_101" data-name="Path 101" d="M304.933,258.822a5.458,5.458,0,0,1,5.97-2.46,3.1,3.1,0,0,1,1.991,4.7,5.458,5.458,0,0,1-5.97,2.46A3.1,3.1,0,0,1,304.933,258.822Z" transform="translate(-304.462 -256.189)" fill="#fff" stroke="#263238" stroke-miterlimit="10" stroke-width="0.5"/>
          </g>
          <g id="Group_34" data-name="Group 34" transform="translate(14.237 74.545)">
            <g id="Group_33" data-name="Group 33" transform="translate(14.452 5.06)">
              <line id="Line_33" data-name="Line 33" x1="4.746" y1="1.336" transform="translate(3.673)" fill="#fff" stroke="#263238" stroke-miterlimit="10" stroke-width="0.5"/>
              <line id="Line_34" data-name="Line 34" x1="29.244" y1="8.231" transform="translate(12.094 2.37)" fill="#fff" stroke="#263238" stroke-miterlimit="10" stroke-width="0.5"/>
              <line id="Line_35" data-name="Line 35" x1="11.789" y1="3.318" transform="translate(1.837 3.305)" fill="#fff" stroke="#263238" stroke-miterlimit="10" stroke-width="0.5"/>
              <line id="Line_36" data-name="Line 36" x1="14.852" y1="4.18" transform="translate(16.841 7.529)" fill="#fff" stroke="#263238" stroke-miterlimit="10" stroke-width="0.5"/>
              <line id="Line_37" data-name="Line 37" x1="5.053" y1="1.422" transform="translate(34.449 12.485)" fill="#fff" stroke="#263238" stroke-miterlimit="10" stroke-width="0.5"/>
              <line id="Line_38" data-name="Line 38" x1="22.966" y1="6.464" transform="translate(0 6.611)" fill="#fff" stroke="#263238" stroke-miterlimit="10" stroke-width="0.5"/>
              <line id="Line_39" data-name="Line 39" x1="9.646" y1="2.715" transform="translate(28.019 14.497)" fill="#fff" stroke="#263238" stroke-miterlimit="10" stroke-width="0.5"/>
            </g>
            <ellipse id="Ellipse_25" data-name="Ellipse 25" cx="3.61" cy="4.567" rx="3.61" ry="4.567" transform="translate(2.641 10.06) rotate(-111.462)" fill="#fff" stroke="#263238" stroke-miterlimit="10" stroke-width="0.5"/>
          </g>
          <path id="Path_102" data-name="Path 102" d="M158.135,118.081l8.034,2.261c.608.024,1.291-.023,1.464-.334.442-.8-.118-1.549-.288-2.255a3.208,3.208,0,0,1,.365-2.394,5.6,5.6,0,0,1,6.124-2.523,3.184,3.184,0,0,1,2.042,4.821,5.266,5.266,0,0,1-2.364,2.137s-1.633.729-1.959,1.317c-.172.31.281.677.747.955l8.659,2.437a2.066,2.066,0,0,1,1.324,3.127l-1.17,2.105-28.119-7.915,1.17-2.105A3.631,3.631,0,0,1,158.135,118.081Zm14.311-2.747a1.792,1.792,0,0,0-1.96.807,1.019,1.019,0,0,0,.654,1.543,1.792,1.792,0,0,0,1.959-.807A1.019,1.019,0,0,0,172.446,115.334Z" transform="translate(-85.682 -112.66)" fill="#ec958b" stroke="#263238" stroke-miterlimit="10" stroke-width="0.5"/>
          <path id="Path_103" data-name="Path 103" d="M251.207,151.535l3.47,2.421,3.574-8.013" transform="translate(-35.583 -262.709) rotate(42)" fill="none" stroke="#48ce99" stroke-linecap="round" stroke-linejoin="round" stroke-width="1"/>
          <path id="Path_104" data-name="Path 104" d="M270.147,185.619l3.47,2.421,3.574-8.013" transform="translate(-16.851 -289.966) rotate(45)" fill="none" stroke="#48ce99" stroke-linecap="round" stroke-linejoin="round" stroke-width="1"/>
        </g>
      </g>
      <g id="Character" transform="translate(21.932 391.244)">
        <g id="Group_43" data-name="Group 43" transform="translate(0)">
          <path id="Path_105" data-name="Path 105" d="M373.331,178.513a5.225,5.225,0,0,1-.347-3.473c.579-1.505,11.231-3.936,11.231-3.936s2.431,0,2.316,1.389-8.915,6.715-9.61,7.178S373.563,181.176,373.331,178.513Z" transform="translate(-357.192 -155.894)" fill="#fff" stroke="#263238" stroke-linecap="round" stroke-linejoin="round" stroke-width="0.5"/>
          <path id="Path_106" data-name="Path 106" d="M374.893,165.328s1.011-.368,1.931-.828-.092,1.655-.46,1.747-1.287.276-1.287.276Z" transform="translate(-348.751 -152.064)" fill="#fff" stroke="#263238" stroke-linecap="round" stroke-linejoin="round" stroke-width="0.5"/>
          <g id="Group_38" data-name="Group 38">
            <g id="Group_37" data-name="Group 37">
              <path id="Path_107" data-name="Path 107" d="M351.033,169.218l5.326,6.484-.463.926-7.526-1.853-52.991-30.849a4.591,4.591,0,0,1-1.587-6.395h0a4.59,4.59,0,0,1,6.4-1.419Z" transform="translate(-293.097 -135.368)" fill="#ec958b" stroke="#263238" stroke-linecap="round" stroke-linejoin="round" stroke-width="0.5"/>
              <g id="Group_36" data-name="Group 36" transform="translate(16.436 12.265)">
                <line id="Line_40" data-name="Line 40" x2="1.727" y2="1.112" transform="translate(14.873 9.572)" fill="#fff" stroke="#263238" stroke-linecap="round" stroke-linejoin="round" stroke-width="0.5"/>
                <line id="Line_41" data-name="Line 41" x2="12.764" y2="8.214" transform="translate(0)" fill="#fff" stroke="#263238" stroke-linecap="round" stroke-linejoin="round" stroke-width="0.5"/>
              </g>
            </g>
            <path id="Path_108" data-name="Path 108" d="M292.562,229.815s1.321.552,1.12,1.107-2.105-.789-2.105-.789Z" transform="translate(-229.795 -189.618)" fill="#c6ff00" stroke="#263238" stroke-linecap="round" stroke-linejoin="round" stroke-width="0.5"/>
            <path id="Path_109" data-name="Path 109" d="M301.086,221.385l-.463.926-7.526-1.853a4.24,4.24,0,0,0,2.663-5.557Z" transform="translate(-237.824 -181.052)" fill="#fff" stroke="#263238" stroke-linecap="round" stroke-linejoin="round" stroke-width="0.5"/>
            <path id="Path_110" data-name="Path 110" d="M403.15,137.532a4.59,4.59,0,0,1,6.4-1.419l9.245,6.02a5.426,5.426,0,0,1,.377,1.991,5.172,5.172,0,0,1-5.046,5.269l-9.39-5.466A4.59,4.59,0,0,1,403.15,137.532Z" transform="translate(-402.455 -135.368)" fill="#fff" stroke="#263238" stroke-linecap="round" stroke-linejoin="round" stroke-width="0.5"/>
            <path id="Path_111" data-name="Path 111" d="M408.047,137.532a4.59,4.59,0,0,1,6.4-1.419l7.025,4.574a5.168,5.168,0,0,1,.513,2.248,5.037,5.037,0,0,1-4.979,5.094c-.117,0-.232,0-.346-.013l-7.027-4.091A4.59,4.59,0,0,1,408.047,137.532Z" transform="translate(-407.352 -135.368)" fill="#263238" stroke="#263238" stroke-linecap="round" stroke-linejoin="round" stroke-width="0.5"/>
          </g>
          <path id="Path_112" data-name="Path 112" d="M363.936,171.5s1.029,0,1.029.468.271,2.134-.325,2.082-.541-1.093-.6-1.457S363.936,171.5,363.936,171.5Z" transform="translate(-331.914 -156.123)" fill="#fff" stroke="#263238" stroke-linecap="round" stroke-linejoin="round" stroke-width="0.5"/>
          <path id="Path_113" data-name="Path 113" d="M365.985,167.424s.92-.283,1.132.283.425,3.254-.212,3.184S366.126,168.414,365.985,167.424Z" transform="translate(-335.089 -153.74)" fill="#fff" stroke="#263238" stroke-linecap="round" stroke-linejoin="round" stroke-width="0.5"/>
          <path id="Path_114" data-name="Path 114" d="M368.456,167.239s1.061-.92,1.415-.142.424,2.972,0,2.972-1.061-.92-1.2-1.415A9.572,9.572,0,0,1,368.456,167.239Z" transform="translate(-338.975 -153.414)" fill="#fff" stroke="#263238" stroke-linecap="round" stroke-linejoin="round" stroke-width="0.5"/>
          <path id="Path_115" data-name="Path 115" d="M370.756,167.572s1.344-1.132,1.556-.92,1.062,2.391.424,2.83-1.444-1.517-1.444-1.517Z" transform="translate(-342.761 -153.323)" fill="#fff" stroke="#263238" stroke-linecap="round" stroke-linejoin="round" stroke-width="0.5"/>
          <path id="Path_116" data-name="Path 116" d="M344.778,175.947s-.151,2.271-.757,2.8a6.935,6.935,0,0,0-.984,1.059,15.786,15.786,0,0,0-.152,1.741c0,.681-.454.606-.832.606s-1.059,1.287-1.438,1.892a10.659,10.659,0,0,1-2.573,2.271c-.681.378-1.817-1.06-1.817-1.06l-.53,1.514-5.373-3.481,2.649-5.146a12.351,12.351,0,0,1,1.589-5.071c1.514-2.725,3.557-4.238,6.963-3.254S344.778,175.947,344.778,175.947Z" transform="translate(-297.361 -154.982)" fill="#fff" stroke="#263238" stroke-linecap="round" stroke-linejoin="round" stroke-width="0.5"/>
          <path id="Path_117" data-name="Path 117" d="M326.11,160.934a12.346,12.346,0,0,1,3.716.743c1.989.7,2.477,3.468,4.211,4.459s.991-.867,1.858-.372,1.734,4.83-.124,6.069-4.583-.372-4.583-.372.248.867-.5,1.115a12.664,12.664,0,0,1-1.363.372s.124,1.486-.991,1.362-.124-1.858-.124-1.858-2.105,4.087-3.716,4.582-3.964-1.734-4.583-2.725-.124-8.051,1.239-10.776S326.11,160.934,326.11,160.934Z" transform="translate(-284.913 -150.053)" fill="#263238" stroke="#263238" stroke-linecap="round" stroke-linejoin="round" stroke-width="0.5"/>
          <path id="Path_118" data-name="Path 118" d="M341.833,190.813s.757-2.876-.454-2.5-1.892,2.952-1.816,3.255.681.454.984.378" transform="translate(-298.578 -165.761)" fill="#fff" stroke="#263238" stroke-linecap="round" stroke-linejoin="round" stroke-width="0.5"/>
          <path id="Path_119" data-name="Path 119" d="M349.855,196.469a31.618,31.618,0,0,1,4.035,2.69c1.287,1.135,2.422,4.541,2.422,4.541s-7.8-5.3-9.158-6.055a6.4,6.4,0,0,1-1.665-1.135A15.166,15.166,0,0,1,349.855,196.469Z" transform="translate(-315.349 -170.373)" fill="#fff" stroke="#263238" stroke-linecap="round" stroke-linejoin="round" stroke-width="0.5"/>
          <path id="Path_120" data-name="Path 120" d="M393.927,182.555a4.784,4.784,0,0,0-3.126-2.316c-2.2-.463-5.095,1.042-5.442,3.473a2.952,2.952,0,0,0,2.663,3.589c1.158,0,2.2-1.621,2.2-1.621S393.927,184.291,393.927,182.555Z" transform="translate(-369.915 -161.094)" fill="#fff" stroke="#263238" stroke-linecap="round" stroke-linejoin="round" stroke-width="0.5"/>
          <path id="Path_121" data-name="Path 121" d="M318.549,227.393l-3.705-9.841a2.273,2.273,0,0,0,1.505.579c.926,0,3.126-.347,2.547-.695s-2.779-1.853-2.779-1.853,1.621.347,2.084,0,.695-.81.347-.926a10.605,10.605,0,0,1-2.316-.463c-1.273-.464-1.853-.927-2.895-.927s-1.968,1.853-1.968,2.431.811,11.578.811,12.041,0,.926,3.01,1.273S318.665,228.667,318.549,227.393Z" transform="translate(-263.508 -180.114)" fill="#fff" stroke="#263238" stroke-linecap="round" stroke-linejoin="round" stroke-width="0.5"/>
          <line id="Line_42" data-name="Line 42" x1="0.549" y1="2.164" transform="translate(50.787 35.275)" fill="#fff" stroke="#263238" stroke-linecap="round" stroke-linejoin="round" stroke-width="0.5"/>
          <path id="Path_122" data-name="Path 122" d="M311.582,240.744s3.7,1.042,4.4,2.663a5.208,5.208,0,0,1-.81,5.442c-1.39,1.389-1.968,1.736-3.473,1.158a2.712,2.712,0,0,1-1.968-2.431A7.2,7.2,0,0,1,311.582,240.744Z" transform="translate(-260.129 -195.896)" fill="#fff" stroke="#263238" stroke-linecap="round" stroke-linejoin="round" stroke-width="0.5"/>
          <path id="Path_123" data-name="Path 123" d="M308.721,354.658s3.242-1.5,4.515-.926,1.274,1.158-.347,3.7-6.136,5.673-7.641,4.979-.116-5.326-.116-5.326Z" transform="translate(-255.764 -260.719)" fill="#fff" stroke="#263238" stroke-linecap="round" stroke-linejoin="round" stroke-width="0.5"/>
          <path id="Path_124" data-name="Path 124" d="M311,358.92a18.093,18.093,0,0,0,2.807-4.15c.6.526.34,1.3-.955,3.339-1.621,2.547-6.136,5.673-7.641,4.979a1.389,1.389,0,0,1-.657-1.153C306.671,362.831,308.887,361.252,311,358.92Z" transform="translate(-255.725 -261.392)" fill="#fff" stroke="#263238" stroke-linecap="round" stroke-linejoin="round" stroke-width="0.5"/>
          <path id="Path_125" data-name="Path 125" d="M346.191,265.861l-.116,3.473s7.063,2.663,10.536,5.095,5.789,4.284,6.136,6.6.116,20.261.116,20.261,1.042.232.695.927-1.042,3.242-1.968,3.473-2.084.695-2.316.116-.926-4.052-1.39-5.21-1.273-6.6-1.968-10.42a40.131,40.131,0,0,1-.695-6.484,37.262,37.262,0,0,1-7.179-1.737c-4.052-1.389-9.957-3.936-9.957-3.936s-4.747,11.925-5.789,14.241-5.094,7.526-5.9,9.03-5.9,7.989-5.9,7.989-1.968-1.736-3.242-1.736h-1.737s2.084-5.789,3.821-9.262,5.326-9.147,5.326-9.147,3.241-20.257,3.358-21.651a28.559,28.559,0,0,1,1.937-6.709S335.539,259.609,346.191,265.861Z" transform="translate(-309.906 -207.351)" fill="#263238" stroke="#263238" stroke-linecap="round" stroke-linejoin="round" stroke-width="0.5"/>
          <g id="Group_39" data-name="Group 39" transform="translate(4.615 99.106)">
            <path id="Path_126" data-name="Path 126" d="M415.419,371.049a15.113,15.113,0,0,1,.81,1.505c.116.347,2.663.695,2.316,1.852s-3.01,2.084-4.284,2.2-3.821-1.621-4.284-2.084a6.22,6.22,0,0,1-.463-3.473,3.582,3.582,0,0,1,.926-1.736S412.64,365.954,415.419,371.049Z" transform="translate(-409.452 -368.227)" fill="#fff" stroke="#263238" stroke-linecap="round" stroke-linejoin="round" stroke-width="0.5"/>
            <path id="Path_127" data-name="Path 127" d="M409.518,372.722a3.42,3.42,0,0,1,.787-1.582,3.539,3.539,0,0,1,2.571,1.119c1.158,1.389.579,4.515,1.968,4.979,1.036.345,2.844-.919,3.7-1.584a.668.668,0,0,1,.008.426c-.347,1.158-3.01,2.084-4.284,2.2s-3.821-1.621-4.284-2.084A6.22,6.22,0,0,1,409.518,372.722Z" transform="translate(-409.455 -369.9)" fill="#fff" stroke="#263238" stroke-linecap="round" stroke-linejoin="round" stroke-width="0.5"/>
            <path id="Path_128" data-name="Path 128" d="M422.667,374.516c.463,2.084-.116,3.473,1.736,4.747-1.273.116-3.821-1.621-4.284-2.084a6.219,6.219,0,0,1-.463-3.473,2.749,2.749,0,0,1,.285-.829l.178.018A2.091,2.091,0,0,1,422.667,374.516Z" transform="translate(-419.594 -370.883)" fill="#263238" stroke="#263238" stroke-linecap="round" stroke-linejoin="round" stroke-width="0.5"/>
          </g>
          <line id="Line_43" data-name="Line 43" x1="6.831" y1="3.358" transform="translate(20.191 67.078)" fill="none" stroke="#fff" stroke-linecap="round" stroke-linejoin="round" stroke-width="0.5"/>
          <line id="Line_44" data-name="Line 44" x1="5.905" y1="0.81" transform="translate(17.992 68.12)" fill="none" stroke="#fff" stroke-linecap="round" stroke-linejoin="round" stroke-width="0.5"/>
          <g id="Group_42" data-name="Group 42" transform="translate(17.052 20.628)">
            <g id="Group_41" data-name="Group 41" transform="translate(0)">
              <path id="Path_129" data-name="Path 129" d="M318.731,183.858c1.968.232,7.062,3.705,7.41,4.053s1.737,1.158,2.316,1.621c0,0,11.925,7.41,12.967,8.1s3.126,2.084,3.01,2.547,6.136,10.652,6.136,10.652,1.853,2.431.116,4.631-3.358.695-4.168.232-7.178-6.484-7.178-6.484l-5.876,14.022s-8.134-5.454-16.817-5.107l5.789-22.693s-7.989-6.021-8.22-8.1S316.763,183.627,318.731,183.858Z" transform="translate(-314.202 -183.836)" fill="#fff" stroke="rgba(0,0,0,0)" stroke-width="0.5"/>
              <g id="Group_40" data-name="Group 40" clip-path="url(#clip-path)">
                <path id="Path_130" data-name="Path 130" d="M319.19,183.858a11.367,11.367,0,0,1,3.364,1.43,1.527,1.527,0,0,0-1.552.649c-.956,1.23,1.092,5.19,1.092,5.19s.839-5.474.82-3.824.409,6.692.409,6.692,2.732-3.278,2.6-2.458a112.606,112.606,0,0,1-3,11.336c-1.093,2.868.819,10.927,1.912,13.248s.41-9.834,1.639-6.829,5.326,11.336,6.283,12.155c.918.787-.3-11.136-.645-12.693.417,1.3,3.24,9.552,3.24,9.552l3.824-9.834s6.556-5.326,5.873-4.37-2.322,3.961-2.322,3.961,3.961-.82,3.278-.546-3.687,1.776-3.687,1.776,6.146,4.371,7.921,4.917a7.2,7.2,0,0,0,1.463.268,3.448,3.448,0,0,1-.548.989c-1.736,2.2-3.358.695-4.168.232s-7.178-6.484-7.178-6.484l-5.876,14.022s-8.134-5.454-16.817-5.107l5.789-22.693s-7.989-6.021-8.22-8.1S317.222,183.627,319.19,183.858Z" transform="translate(-314.661 -183.836)" fill="#f13f4b" stroke="rgba(0,0,0,0)" stroke-width="0.5"/>
                <path id="Path_131" data-name="Path 131" d="M319.19,183.858a11.367,11.367,0,0,1,3.364,1.43,1.527,1.527,0,0,0-1.552.649c-.956,1.23,1.092,5.19,1.092,5.19s.839-5.474.82-3.824.409,6.692.409,6.692,2.732-3.278,2.6-2.458a112.606,112.606,0,0,1-3,11.336c-1.093,2.868.819,10.927,1.912,13.248s.41-9.834,1.639-6.829,5.326,11.336,6.283,12.155c.918.787-.3-11.136-.645-12.693.417,1.3,3.24,9.552,3.24,9.552l3.824-9.834s6.556-5.326,5.873-4.37-2.322,3.961-2.322,3.961,3.961-.82,3.278-.546-3.687,1.776-3.687,1.776,6.146,4.371,7.921,4.917a7.2,7.2,0,0,0,1.463.268,3.448,3.448,0,0,1-.548.989c-1.736,2.2-3.358.695-4.168.232s-7.178-6.484-7.178-6.484l-5.876,14.022s-8.134-5.454-16.817-5.107l5.789-22.693s-7.989-6.021-8.22-8.1S317.222,183.627,319.19,183.858Z" transform="translate(-314.661 -183.836)" fill="#f63d4b" stroke="rgba(0,0,0,0)" stroke-width="0.5" opacity="0.5"/>
              </g>
              <path id="Path_133" data-name="Path 133" d="M318.731,183.858c1.968.232,7.062,3.705,7.41,4.053s1.737,1.158,2.316,1.621c0,0,11.925,7.41,12.967,8.1s3.126,2.084,3.01,2.547,6.136,10.652,6.136,10.652,1.853,2.431.116,4.631-3.358.695-4.168.232-7.178-6.484-7.178-6.484l-5.876,14.022s-8.134-5.454-16.817-5.107l5.789-22.693s-7.989-6.021-8.22-8.1S316.763,183.627,318.731,183.858Z" transform="translate(-314.202 -183.836)" fill="none" stroke="#263238" stroke-linecap="round" stroke-linejoin="round" stroke-width="0.5"/>
            </g>
            <path id="Path_134" data-name="Path 134" d="M356.5,263.533a30.367,30.367,0,0,0-.489-9.542" transform="translate(-337.242 -224.133)" fill="#fff" stroke="#263238" stroke-linecap="round" stroke-linejoin="round" stroke-width="0.5"/>
            <path id="Path_135" data-name="Path 135" d="M356.028,248.844s0-1.957-2.2-8.074" transform="translate(-335.665 -216.539)" fill="#fff" stroke="#263238" stroke-linecap="round" stroke-linejoin="round" stroke-width="0.5"/>
            <path id="Path_136" data-name="Path 136" d="M336.241,231.495l-4.515,5.094,4.631-3.358" transform="translate(-306.588 -211.211)" fill="#fff" stroke="#263238" stroke-linecap="round" stroke-linejoin="round" stroke-width="0.5"/>
            <path id="Path_137" data-name="Path 137" d="M383.83,193.358v6.484l-1.505-8.336" transform="translate(-375.596 -188.241)" fill="#fff" stroke="#263238" stroke-linecap="round" stroke-linejoin="round" stroke-width="0.5"/>
          </g>
        </g>
        <g id="Group_44" data-name="Group 44" transform="translate(34.442 45.37)">
          <path id="Path_138" data-name="Path 138" d="M360.7,242a1.119,1.119,0,0,1,.038.146C360.69,241.989,360.673,241.928,360.7,242Z" transform="translate(-360.688 -241.97)" fill="#263238" stroke="rgba(0,0,0,0)" stroke-width="0.5"/>
        </g>
      </g>
    </g>
    <path id="Path_331" data-name="Path 331" d="M-88.13-5.62h-.59v.75h.59Zm1.17,0h-.59v.75h.59Zm1.79.62V-.55h-2.96c-1.71,0-2.38-.48-2.38-1.58a9.487,9.487,0,0,1,.25-1.68l-.58-.11a9.927,9.927,0,0,0-.26,1.79c0,1.46.98,2.13,2.97,2.13h3.55V-5Zm4.12,4.45h-1.11V-7.23h-.59V0h1.7c.18,0,.2-.11.2-.27S-80.87-.55-81.05-.55ZM-80-6.48v.75h.59v-.75Zm0,5.93h-1.05c-.18,0-.2.12-.2.28s.02.27.2.27h1.64V-5H-80Zm4.12,0h-1.11V-7.23h-.59V0h1.7c.18,0,.2-.11.2-.27S-75.7-.55-75.88-.55Zm5.94,0h-1.04V-3.06c0-1.26-.88-1.94-2.37-1.94a9.1,9.1,0,0,0-1.89.25l.07.49a15.248,15.248,0,0,1,1.84-.18c1.17,0,1.76.45,1.76,1.38V-.55h-4.31c-.18,0-.2.12-.2.28s.02.27.2.27h5.94c.18,0,.2-.11.2-.27S-69.76-.55-69.94-.55Zm1.05-5.93h-.59v.75h.59Zm1.17,0h-.59v.75h.59Zm.46,5.93H-68.3V-5h-.59V-.55h-1.05c-.18,0-.2.12-.2.28s.02.27.2.27h2.68c.18,0,.2-.11.2-.27S-67.08-.55-67.26-.55ZM-64.19-5a5.073,5.073,0,0,0-1.72.27,11.7,11.7,0,0,0-.27,2.43,11.127,11.127,0,0,0,.14,1.75h-1.22c-.18,0-.2.12-.2.28s.02.27.2.27h5.53V-2.45C-61.73-4.32-62.55-5-64.19-5ZM-65.44-.55a10.527,10.527,0,0,1-.15-1.75,11.279,11.279,0,0,1,.19-2.02,5.54,5.54,0,0,1,1.21-.13c1.38,0,1.87.52,1.87,2v1.9Zm9.31-6.68V-.55h-2.19V-5.79h-.59V-.55h-1.64V0h5.01V-7.23ZM-53.71,0h.59V-7.23h-.59Zm4.19-5c-1.75,0-2.23.78-2.23,2.5S-51.27,0-49.52,0h1.36V.33c0,1.06-.49,1.58-1.43,1.58a6.969,6.969,0,0,1-1.34-.17l-.12.53a7.053,7.053,0,0,0,1.46.19A1.893,1.893,0,0,0-47.57.33V-5Zm0,4.45c-1.28,0-1.64-.39-1.64-1.95s.36-1.95,1.64-1.95h1.36v3.9Zm8.3-5.07h-.59v.75h.59Zm1.17,0h-.59v.75h.59Zm1.79.62V-.55h-2.96c-1.71,0-2.38-.48-2.38-1.58a9.486,9.486,0,0,1,.25-1.68l-.58-.11a9.928,9.928,0,0,0-.26,1.79c0,1.46.98,2.13,2.97,2.13h3.55V-5Zm4.12,4.45h-1.11V-7.23h-.59V0h1.7c.18,0,.2-.11.2-.27S-33.96-.55-34.14-.55Zm2.68,0H-32.5V-5h-.59V-.55h-1.05c-.18,0-.2.12-.2.28s.02.27.2.27h2.68c.18,0,.2-.11.2-.27S-31.28-.55-31.46-.55Zm-1.64,1.9h.59V.6h-.59ZM-29.82-5h-.59V-.55h-1.05c-.18,0-.2.12-.2.28s.02.27.2.27h1.64Zm-1.17,6.35h.59V.6h-.59ZM-29.82.6v.75h.59V.6Zm1.07,1.87A1.851,1.851,0,0,0-26.92.42V-5h-.59V.42c0,.92-.49,1.5-1.24,1.5-.13,0-.3-.02-.49-.04l-.07.55A5.464,5.464,0,0,0-28.75,2.47Zm7.9-3.02H-21.9V-2.32c0-2.01-.94-2.68-2.54-2.68h-.81v.55h.81c1.41,0,1.95.57,1.95,2.13V-.55h-3.28V0h4.92c.17,0,.2-.11.2-.27S-20.68-.55-20.85-.55Zm1.05-5.93h-.59v.75h.59Zm1.17,0h-.59v.75h.59Zm.46,5.93h-1.04V-5h-.59V-.55h-1.05c-.18,0-.2.12-.2.28s.02.27.2.27h2.68c.18,0,.2-.11.2-.27S-17.99-.55-18.17-.55Zm1.12-6.68V-.55h-1.12c-.18,0-.2.12-.2.28s.02.27.2.27h1.71V-7.23ZM-14.71,0h.59V-7.23h-.59Zm6.67-.55H-9.09V-5h-.59V.42c0,.92-.49,1.5-1.24,1.5-.13,0-.3-.02-.49-.04l-.07.55a5.464,5.464,0,0,0,.56.04A1.851,1.851,0,0,0-9.09.42V0h1.05c.17,0,.2-.11.2-.27S-7.87-.55-8.04-.55Zm2.82-5.9h-.59v.75h.59ZM-5.51-5a9.1,9.1,0,0,0-1.89.25l.07.49a15.248,15.248,0,0,1,1.84-.18c1.17,0,1.76.45,1.76,1.38V-.55H-8.04c-.18,0-.2.12-.2.28s.02.27.2.27h4.9V-3.06C-3.14-4.32-4.02-5-5.51-5ZM-.3-8.35a.874.874,0,0,1-.65.26.859.859,0,0,1-.66-.28h-.45l-.43.58.27.25.36-.36a1.15,1.15,0,0,0,.81.32,1.1,1.1,0,0,0,.97-.58ZM-1.56,0h.59V-7.23h-.59Zm-27.1,18.45H-29.7V14h-1.95c-1.75,0-2.23.78-2.23,2.5s.48,2.5,2.23,2.5h2.99c.18,0,.2-.11.2-.27S-28.48,18.45-28.66,18.45Zm-2.99,0c-1.28,0-1.64-.39-1.64-1.95s.36-1.95,1.64-1.95h1.36v3.9Zm6.64-5.93h-.59v.75h.59ZM-25.39,14c-1.75,0-2.23.78-2.23,2.5a2.8,2.8,0,0,0,.51,1.95h-1.55c-.18,0-.2.12-.2.28s.02.27.2.27h5.22V14Zm-1.64,2.5c0-1.56.36-1.95,1.64-1.95h1.36v3.9h-1.36C-26.67,18.45-27.03,18.06-27.03,16.5Zm7.05,1.95h-1.11V11.77h-.59V19h1.7c.18,0,.2-.11.2-.27S-19.8,18.45-19.98,18.45Zm4.77-5.93h-.59v.75h.59Zm3.61,5.93h-1.04V16.59c0-1.12-.43-2.59-2.33-2.59a3.67,3.67,0,0,0-2.96,1.74V14h-.59v4.45h-1.46c-.18,0-.2.12-.2.28s.02.27.2.27h8.38c.18,0,.2-.11.2-.27S-11.42,18.45-11.6,18.45Zm-6.33-1.9c.71-.9,1.56-2,2.95-2,1.17,0,1.75.7,1.75,2.04v1.86h-4.7Zm12.91,1.9H-6.07v-1.9c0-1.87-.82-2.55-2.46-2.55a5.073,5.073,0,0,0-1.72.27,11.7,11.7,0,0,0-.27,2.43,11.126,11.126,0,0,0,.14,1.75H-11.6c-.18,0-.2.12-.2.28s.02.27.2.27h6.58c.17,0,.2-.11.2-.27S-4.85,18.45-5.02,18.45Zm-4.76,0a10.527,10.527,0,0,1-.15-1.75,11.279,11.279,0,0,1,.19-2.02,5.54,5.54,0,0,1,1.21-.13c1.38,0,1.87.52,1.87,2v1.9Zm5.88-6.68v6.68H-5.02c-.18,0-.2.12-.2.28s.02.27.2.27h1.71V11.77ZM-1.56,19h.59V11.77h-.59Z" transform="translate(323 492)" fill="#fff" opacity="0.5"/>
  </g>
</svg>
