<svg xmlns="http://www.w3.org/2000/svg" xmlns:xlink="http://www.w3.org/1999/xlink" width="62" height="74" viewBox="0 0 62 74">
  <defs>
    <linearGradient id="linear-gradient" x1="-0.473" y1="-0.558" x2="0.947" y2="1.226" gradientUnits="objectBoundingBox">
      <stop offset="0" stop-color="#5464d3"/>
      <stop offset="1" stop-color="#acb5fd"/>
    </linearGradient>
    <filter id="Rectangle_171" x="0" y="0" width="62" height="74" filterUnits="userSpaceOnUse">
      <feOffset dy="3" input="SourceAlpha"/>
      <feGaussianBlur stdDeviation="5" result="blur"/>
      <feFlood flood-color="#5464d3" flood-opacity="0.502"/>
      <feComposite operator="in" in2="blur"/>
      <feComposite in="SourceGraphic"/>
    </filter>
  </defs>
  <g id="Group_126" data-name="Group 126" transform="translate(-5491.961 154.039)">
    <circle id="Ellipse_46" data-name="Ellipse 46" cx="31" cy="31" r="31" transform="translate(5491.961 -151.039)" fill="url(#linear-gradient)"/>
    <rect id="Rectangle_176" data-name="Rectangle 176" width="30.23" height="38.291" rx="8" transform="matrix(0.966, 0.259, -0.259, 0.966, 5520.37, -142.444)" fill="#e0e5ff"/>
    <rect id="Rectangle_177" data-name="Rectangle 177" width="30.229" height="38.291" rx="8" transform="matrix(-0.966, 0.259, -0.259, -0.966, 5535.463, -105.458)" fill="#e0e5ff"/>
    <g transform="matrix(1, 0, 0, 1, 5491.96, -154.04)" filter="url(#Rectangle_171)">
      <rect id="Rectangle_171-2" data-name="Rectangle 171" width="32" height="44" rx="8" transform="translate(15 12)" fill="#fff"/>
    </g>
    <rect id="Rectangle_172" data-name="Rectangle 172" width="22" height="4" rx="2" transform="translate(5511.961 -134.039)" fill="#3e53d9"/>
    <rect id="Rectangle_174" data-name="Rectangle 174" width="22" height="4" rx="2" transform="translate(5511.961 -117.039)" fill="#08d5c9"/>
    <rect id="Rectangle_175" data-name="Rectangle 175" width="22" height="4" rx="2" transform="translate(5511.961 -111.039)" fill="#b3b9f4"/>
    <rect id="Rectangle_173" data-name="Rectangle 173" width="10" height="4" rx="2" transform="translate(5517.961 -127.039)" fill="#3e53d9"/>
  </g>
</svg>
