<svg xmlns="http://www.w3.org/2000/svg" xmlns:xlink="http://www.w3.org/1999/xlink" width="42" height="46" viewBox="0 0 42 46">
  <defs>
    <linearGradient id="linear-gradient" x1="-0.473" y1="-0.558" x2="0.947" y2="1.226" gradientUnits="objectBoundingBox">
      <stop offset="0" stop-color="#5464d3"/>
      <stop offset="1" stop-color="#acb5fd"/>
    </linearGradient>
    <linearGradient id="linear-gradient-2" x1="0.5" y1="0.795" x2="0.5" y2="0.031" gradientUnits="objectBoundingBox">
      <stop offset="0" stop-color="#eceffb"/>
      <stop offset="1" stop-color="#bec9ff"/>
    </linearGradient>
    <linearGradient id="linear-gradient-3" x1="0.5" y1="0.205" x2="0.5" y2="0.969" xlink:href="#linear-gradient-2"/>
    <filter id="Rectangle_171" x="0" y="0" width="42" height="46" filterUnits="userSpaceOnUse">
      <feOffset dy="3" input="SourceAlpha"/>
      <feGaussianBlur stdDeviation="5" result="blur"/>
      <feFlood flood-color="#5464d3" flood-opacity="0.502"/>
      <feComposite operator="in" in2="blur"/>
      <feComposite in="SourceGraphic"/>
    </filter>
  </defs>
  <g id="Group_179" data-name="Group 179" transform="translate(-258 -259)">
    <g id="Group_132" data-name="Group 132" transform="translate(-4362.708 1188.292)">
      <circle id="Ellipse_46" data-name="Ellipse 46" cx="20" cy="20" r="20" transform="translate(4621.708 -929.292)" fill="url(#linear-gradient)"/>
      <path id="Intersection_2" data-name="Intersection 2" d="M-1307.292-1164.292a3,3,0,0,1-3-3v-6.085a20,20,0,0,1,6-.916,19.991,19.991,0,0,1,6,.916v6.084a3,3,0,0,1-3,3Z" transform="translate(5946 245)" fill="url(#linear-gradient-2)"/>
      <path id="Intersection_4" data-name="Intersection 4" d="M0,9.084V3A3,3,0,0,1,3,0H9a3,3,0,0,1,3,3V9.084A20,20,0,0,1,6,10,19.99,19.99,0,0,1,0,9.084Z" transform="translate(4635.708 -899.292)" fill="url(#linear-gradient-3)"/>
      <g id="Group_131" data-name="Group 131" transform="translate(4634.034 -919.524)">
        <g transform="matrix(1, 0, 0, 1, -13.33, -9.77)" filter="url(#Rectangle_171)">
          <rect id="Rectangle_171-2" data-name="Rectangle 171" width="12" height="16" rx="3" transform="translate(15 12)" fill="#fff"/>
        </g>
        <rect id="Rectangle_172" data-name="Rectangle 172" width="8" height="1" rx="0.5" transform="translate(3.674 6.232)" fill="#3e53d9"/>
        <rect id="Rectangle_174" data-name="Rectangle 174" width="8" height="1" rx="0.5" transform="translate(3.674 11.232)" fill="#08d5c9"/>
        <rect id="Rectangle_175" data-name="Rectangle 175" width="8" height="1" rx="0.5" transform="translate(3.674 13.232)" fill="#b3b9f4"/>
        <rect id="Rectangle_173" data-name="Rectangle 173" width="4" height="1" rx="0.5" transform="translate(5.674 8.232)" fill="#3e53d9"/>
      </g>
    </g>
  </g>
</svg>
