<svg xmlns="http://www.w3.org/2000/svg" xmlns:xlink="http://www.w3.org/1999/xlink" width="248" height="61" viewBox="0 0 248 61">
  <defs>
    <filter id="Rectangle_180" x="0" y="0" width="248" height="61" filterUnits="userSpaceOnUse">
      <feOffset dy="3" input="SourceAlpha"/>
      <feGaussianBlur stdDeviation="3" result="blur"/>
      <feFlood flood-color="#398ce0" flood-opacity="0.302"/>
      <feComposite operator="in" in2="blur"/>
      <feComposite in="SourceGraphic"/>
    </filter>
  </defs>
  <g id="Group_135" data-name="Group 135" transform="translate(-56 -408)">
    <g id="Group_134" data-name="Group 134">
      <g transform="matrix(1, 0, 0, 1, 56, 408)" filter="url(#Rectangle_180)">
        <rect id="Rectangle_180-2" data-name="Rectangle 180" width="230" height="43" rx="10" transform="translate(9 6)" fill="#5568fe"/>
      </g>
      <text id="البدء" transform="translate(195 441)" fill="#fff" font-size="14" font-family="Cairo-SemiBold, Cairo" font-weight="600"><tspan x="-28.952" y="0">البدء</tspan></text>
      <g id="Group_127" data-name="Group 127" transform="translate(0 7)">
        <circle id="Ellipse_47" data-name="Ellipse 47" cx="9" cy="9" r="9" transform="translate(89 420)" fill="#4981ee"/>
        <path id="Icon_metro-arrow-left" data-name="Icon metro-arrow-left" d="M8.281,13.627l-3.573-3.35a.641.641,0,0,1,0-.947L8.281,5.98a.749.749,0,0,1,1.01,0,.641.641,0,0,1,0,.947L6.938,9.134h6.849a.671.671,0,1,1,0,1.34H6.938L9.291,12.68a.641.641,0,0,1,0,.947A.749.749,0,0,1,8.281,13.627Z" transform="translate(88.5 418.964)" fill="#fff"/>
      </g>
    </g>
  </g>
</svg>
