<svg xmlns="http://www.w3.org/2000/svg" xmlns:xlink="http://www.w3.org/1999/xlink" width="86" height="86" viewBox="0 0 86 86">
  <defs>
    <linearGradient id="linear-gradient" x1="0.5" y1="1" x2="0.5" gradientUnits="objectBoundingBox">
      <stop offset="0" stop-color="#212121"/>
      <stop offset="0.042" stop-color="#212121"/>
      <stop offset="1" stop-color="#585858"/>
    </linearGradient>
  </defs>
  <g id="user_1_" data-name="user (1)" transform="translate(-0.289 -0.289)">
    <g id="Group_92" data-name="Group 92" transform="translate(0.129 0.129)">
      <g id="Group_91" data-name="Group 91" transform="translate(0 0)">
        <circle id="Ellipse_34" data-name="Ellipse 34" cx="43" cy="43" r="43" transform="translate(0.16 0.16)" fill="url(#linear-gradient)"/>
      </g>
    </g>
    <g id="Group_94" data-name="Group 94" transform="translate(20.47 15.399)">
      <g id="Group_93" data-name="Group 93">
        <path id="Path_269" data-name="Path 269" d="M156.5,103.677a12.677,12.677,0,1,0-12.677,12.677A12.692,12.692,0,0,0,156.5,103.677Zm-12.677,12.677A22.845,22.845,0,0,0,121,139.173v2.376a2.535,2.535,0,0,0,.843,1.888,32.427,32.427,0,0,0,43.951,0,2.535,2.535,0,0,0,.843-1.888v-2.376A22.845,22.845,0,0,0,143.819,116.354Z" transform="translate(-121 -91)" fill="#fec105"/>
      </g>
    </g>
  </g>
</svg>
